<?xml version="1.0" standalone="no"?>
<!DOCTYPE svg PUBLIC "-//W3C//DTD SVG 20010904//EN"
 "http://www.w3.org/TR/2001/REC-SVG-20010904/DTD/svg10.dtd">
<svg version="1.0" xmlns="http://www.w3.org/2000/svg"
 width="1024.000000pt" height="1024.000000pt" viewBox="0 0 1024.000000 1024.000000"
 preserveAspectRatio="xMidYMid meet">

<g transform="translate(0.000000,1024.000000) scale(0.100000,-0.100000)"
fill="#000000" stroke="none">
<path d="M4975 7453 c-659 -59 -1195 -344 -1564 -833 -207 -274 -334 -564
-410 -935 -46 -220 -56 -334 -55 -630 0 -289 11 -402 60 -642 175 -855 751
-1475 1559 -1678 234 -59 337 -70 650 -70 306 0 398 10 611 65 739 190 1259
761 1335 1466 11 104 8 131 -14 117 -7 -4 -21 -8 -32 -8 -11 0 -35 -14 -54
-30 -30 -27 -32 -34 -27 -72 18 -134 -90 -449 -230 -670 -36 -56 -215 -262
-285 -329 -126 -118 -336 -253 -497 -319 -51 -21 -91 -40 -89 -42 14 -14 317
125 427 196 288 186 556 544 655 876 15 50 34 115 43 145 12 38 18 48 20 33 6
-38 19 -26 32 28 18 74 23 53 10 -38 -33 -219 -147 -483 -288 -672 -189 -251
-457 -457 -744 -570 -184 -72 -260 -93 -392 -107 -26 -2 -64 -11 -83 -19 -19
-8 -69 -17 -111 -21 -42 -3 -90 -7 -107 -9 -16 -1 -36 2 -44 9 -12 9 -13 8 -6
-3 6 -11 4 -13 -11 -7 -30 13 -264 18 -264 6 0 -5 -5 -10 -11 -10 -5 0 -7 5
-4 10 8 12 -8 13 -21 1 -19 -18 -304 24 -509 75 -150 38 -329 112 -486 201
-75 43 -239 163 -239 175 0 4 -6 8 -13 8 -16 0 -149 120 -178 162 l-22 30 31
-16 c16 -8 80 -55 141 -104 155 -123 383 -257 556 -327 104 -42 150 -43 55 -2
-145 64 -318 158 -376 206 -17 14 -75 60 -129 101 -110 85 -192 169 -306 316
-104 134 -168 239 -250 409 -148 305 -224 628 -244 1030 -7 136 4 348 31 570
31 255 156 624 278 815 105 166 138 213 207 295 176 209 426 414 639 524 79
40 224 98 375 149 40 14 3 16 -39 2 -17 -5 -71 -21 -119 -35 -104 -31 -395
-175 -490 -243 -91 -65 -192 -149 -252 -210 -59 -60 -49 -48 -155 -192 -46
-63 -87 -117 -91 -120 -29 -22 -147 -246 -217 -410 -49 -115 -108 -290 -116
-345 -3 -22 -17 -74 -30 -115 -22 -68 -24 -72 -25 -37 -1 20 -5 37 -10 37 -25
0 -60 -263 -67 -510 -9 -286 19 -530 97 -844 16 -66 28 -121 26 -123 -5 -4
-53 158 -66 222 -56 278 -71 420 -71 695 0 537 108 967 343 1357 83 139 160
236 302 378 119 120 193 179 375 303 170 115 527 253 692 267 29 2 130 14 223
25 150 19 196 21 385 14 250 -9 250 -9 270 -17 17 -6 77 -15 170 -23 123 -11
408 -117 563 -210 139 -83 407 -317 407 -355 0 -11 -16 1 -140 104 -111 93
-190 147 -335 225 -135 74 -305 145 -333 140 -9 -2 15 -16 53 -32 160 -67 267
-127 390 -217 311 -230 485 -456 609 -791 57 -153 85 -325 56 -343 -18 -11
-11 -33 13 -40 12 -4 31 -15 42 -25 11 -10 32 -23 48 -29 25 -10 27 -9 28 17
6 191 -51 422 -156 638 -169 348 -437 612 -800 789 -214 105 -446 170 -694
195 -95 9 -413 11 -506 3z m-1822 -3393 c19 -47 51 -122 70 -167 19 -46 33
-83 31 -83 -15 0 -144 300 -144 334 0 18 9 1 43 -84z m303 -556 c15 -23 15
-27 2 -16 -20 16 -115 153 -124 179 -7 17 83 -101 122 -163z m104 -119 c7 -8
9 -15 6 -15 -4 0 -14 7 -22 15 -9 8 -11 15 -6 15 5 0 15 -7 22 -15z"/>
<path d="M4813 7366 c-40 -7 -75 -15 -79 -19 -7 -6 70 -1 114 9 13 3 43 7 65
11 23 3 44 7 46 9 8 8 -74 2 -146 -10z"/>
<path d="M5565 7362 c27 -12 165 -35 171 -29 6 6 -83 26 -146 33 -32 3 -39 2
-25 -4z"/>
<path d="M5800 7310 c8 -5 20 -10 25 -10 6 0 3 5 -5 10 -8 5 -19 10 -25 10 -5
0 -3 -5 5 -10z"/>
<path d="M5630 6388 c36 -23 67 -51 68 -62 3 -12 0 -16 -7 -11 -7 4 -17 2 -24
-4 -9 -7 -39 0 -104 24 -130 49 -254 69 -378 60 -110 -7 -263 -29 -310 -43
-67 -22 -175 -80 -175 -95 0 -10 -36 -58 -122 -160 -70 -84 -125 -177 -176
-294 -38 -87 -69 -136 -82 -128 -10 6 -36 -86 -57 -195 -14 -77 -18 -148 -18
-385 0 -281 1 -294 29 -425 38 -179 73 -284 142 -421 107 -214 249 -372 359
-400 16 -4 73 -25 125 -47 118 -50 227 -73 350 -74 102 -1 165 12 308 62 94
34 117 37 130 14 13 -23 55 -9 91 32 17 18 31 41 31 49 0 18 37 88 80 150 25
37 89 156 77 145 -3 -3 -28 -39 -55 -80 -46 -69 -132 -162 -192 -208 -146
-113 -376 -162 -597 -128 -266 40 -464 181 -612 434 -223 383 -274 1046 -116
1529 146 445 489 682 919 635 355 -39 594 -252 705 -627 20 -68 22 -71 63 -85
32 -11 44 -21 46 -39 l4 -24 111 6 c101 6 716 89 760 103 12 4 15 10 10 15 -5
5 -90 -3 -209 -21 -449 -66 -576 -82 -610 -75 -20 3 -33 9 -30 12 3 4 -7 14
-23 24 -23 14 -28 22 -23 46 2 15 9 34 15 41 11 14 -9 45 -24 36 -5 -3 -17 9
-28 26 l-19 32 5 -46 c10 -89 -24 -48 -63 74 -20 65 -52 131 -100 206 -45 71
-39 93 8 27 44 -61 128 -206 128 -221 0 -6 5 -14 10 -17 12 -7 -19 73 -56 148
-28 55 -104 170 -116 175 -5 2 -8 13 -8 25 0 36 70 -49 135 -163 31 -55 58
-100 60 -100 8 0 -15 62 -41 109 -40 74 -161 219 -226 271 -51 40 -140 86
-208 105 -14 4 4 -13 40 -37z"/>
<path d="M4649 6352 c-24 -16 -53 -39 -64 -52 -18 -20 -14 -19 25 6 67 42 106
73 94 74 -5 0 -30 -13 -55 -28z"/>
<path d="M4690 6315 c-14 -16 -10 -18 14 -9 9 3 16 10 16 15 0 14 -16 11 -30
-6z"/>
<path d="M6905 5749 c-16 -5 -57 -13 -90 -18 -33 -5 -103 -16 -155 -25 -52 -8
-140 -20 -194 -27 -55 -7 -120 -18 -145 -25 -46 -12 -46 -12 -11 -13 33 -1 89
7 330 43 52 8 122 17 155 21 87 10 143 25 149 41 6 16 3 16 -39 3z"/>
<path d="M4210 5501 c0 -11 4 -22 9 -25 4 -3 6 6 3 19 -5 30 -12 33 -12 6z"/>
<path d="M4192 5392 c-18 -127 -24 -339 -13 -482 23 -307 118 -604 264 -827
49 -74 184 -216 229 -239 46 -24 33 -3 -39 60 -80 73 -196 226 -246 327 -35
69 -125 295 -132 329 -2 8 -8 37 -14 63 -6 27 -14 78 -16 115 -3 37 -7 81 -10
97 -14 90 -19 162 -19 265 0 136 10 318 19 341 3 10 2 20 -3 23 -6 3 -14 -27
-20 -72z"/>
<path d="M4151 5384 c0 -11 3 -14 6 -6 3 7 2 16 -1 19 -3 4 -6 -2 -5 -13z"/>
<path d="M4141 5324 c0 -11 3 -14 6 -6 3 7 2 16 -1 19 -3 4 -6 -2 -5 -13z"/>
<path d="M4143 4930 c0 -25 2 -35 4 -22 2 12 2 32 0 45 -2 12 -4 2 -4 -23z"/>
<path d="M4155 4810 c3 -41 9 -95 14 -120 l8 -45 1 40 c0 22 -6 76 -13 120
l-14 80 4 -75z"/>
<path d="M4211 4528 c-5 -76 106 -334 210 -488 39 -59 181 -200 220 -220 13
-6 2 9 -25 34 -27 25 -54 46 -59 46 -6 0 -7 3 -4 6 4 4 -2 14 -12 23 -23 20
-135 169 -178 236 -29 46 -124 278 -143 350 -4 17 -8 22 -9 13z"/>
<path d="M6140 4505 c0 -12 16 -15 83 -14 76 0 199 -14 644 -72 150 -19 218
-20 201 -3 -9 8 -105 21 -460 64 -368 44 -468 49 -468 25z"/>
<path d="M6165 4460 c-13 -22 7 -28 41 -14 32 13 46 13 127 0 51 -9 137 -20
192 -26 55 -6 123 -15 150 -20 153 -28 275 -42 301 -35 28 7 28 8 7 15 -22 9
-182 32 -343 49 -52 6 -140 17 -195 26 -115 17 -271 20 -280 5z"/>
<path d="M6075 4451 c-14 -6 -30 -38 -54 -112 -46 -142 -46 -142 -10 -74 49
93 79 120 79 70 0 -29 7 -31 31 -9 14 13 16 21 7 45 -6 16 -8 43 -6 59 5 32
-7 37 -47 21z"/>
<path d="M5766 3774 c-26 -20 -45 -38 -42 -41 6 -6 69 31 86 52 24 29 5 24
-44 -11z"/>
<path d="M5898 2833 c7 -3 16 -2 19 1 4 3 -2 6 -13 5 -11 0 -14 -3 -6 -6z"/>
<path d="M4532 2825 c9 -10 200 -55 227 -54 14 0 -28 14 -94 30 -123 29 -142
33 -133 24z"/>
<path d="M5708 2783 c6 -2 18 -2 25 0 6 3 1 5 -13 5 -14 0 -19 -2 -12 -5z"/>
<path d="M5668 2773 c7 -3 16 -2 19 1 4 3 -2 6 -13 5 -11 0 -14 -3 -6 -6z"/>
</g>
</svg>
