<?xml version="1.0" standalone="no"?>
<!DOCTYPE svg PUBLIC "-//W3C//DTD SVG 20010904//EN"
 "http://www.w3.org/TR/2001/REC-SVG-20010904/DTD/svg10.dtd">
<svg version="1.0" xmlns="http://www.w3.org/2000/svg"
 width="1024.000000pt" height="1024.000000pt" viewBox="0 0 1024.000000 1024.000000"
 preserveAspectRatio="xMidYMid meet">

<g transform="translate(0.000000,1024.000000) scale(0.100000,-0.100000)"
fill="#000000" stroke="none">
<path d="M4720 7464 c-92 -24 -191 -65 -184 -76 4 -7 9 -7 13 0 3 6 65 28 136
51 125 39 148 55 35 25z"/>
<path d="M5448 7473 c7 -3 16 -2 19 1 4 3 -2 6 -13 5 -11 0 -14 -3 -6 -6z"/>
<path d="M5490 7464 c8 -3 58 -19 110 -36 123 -40 184 -71 329 -168 127 -85
294 -240 373 -345 56 -75 133 -206 182 -309 39 -82 57 -141 87 -286 l18 -85
-4 65 -3 65 18 -70 c27 -104 24 -36 -4 80 -30 122 -75 247 -87 239 -5 -3 -6 2
-3 10 7 19 -68 161 -140 265 -121 177 -329 355 -530 455 -110 55 -306 127
-342 125 -14 0 -15 -2 -4 -5z m1040 -909 c0 -5 -5 -3 -10 5 -5 8 -10 20 -10
25 0 6 5 3 10 -5 5 -8 10 -19 10 -25z m19 -60 c0 -5 -4 -3 -9 5 -5 8 -9 22 -9
30 0 16 17 -16 18 -35z m8 -37 c-3 -8 -6 -5 -6 6 -1 11 2 17 5 13 3 -3 4 -12
1 -19z m20 -80 c-3 -8 -6 -5 -6 6 -1 11 2 17 5 13 3 -3 4 -12 1 -19z"/>
<path d="M4500 7380 c0 -5 -7 -7 -15 -4 -8 4 -15 1 -15 -5 0 -16 25 -13 40 4
9 10 9 15 1 15 -6 0 -11 -4 -11 -10z"/>
<path d="M4451 7354 c0 -11 3 -14 6 -6 3 7 2 16 -1 19 -3 4 -6 -2 -5 -13z"/>
<path d="M4423 7353 c-15 -5 -18 -33 -4 -33 8 0 25 30 19 35 -2 1 -9 0 -15 -2z"/>
<path d="M4340 7309 c-30 -16 -59 -35 -65 -41 -5 -6 6 -1 26 10 43 26 56 28
38 6 -8 -10 0 -8 24 6 20 12 37 28 37 36 0 18 5 19 -60 -17z m50 7 c0 -2 -7
-7 -16 -10 -8 -3 -12 -2 -9 4 6 10 25 14 25 6z"/>
<path d="M4259 7233 c-13 -16 -12 -17 4 -4 9 7 17 15 17 17 0 8 -8 3 -21 -13z"/>
<path d="M4179 7203 c-13 -16 -12 -17 4 -4 9 7 17 15 17 17 0 8 -8 3 -21 -13z"/>
<path d="M4219 7203 c-13 -16 -12 -17 4 -4 9 7 17 15 17 17 0 8 -8 3 -21 -13z"/>
<path d="M4139 7173 c-13 -16 -12 -17 4 -4 9 7 17 15 17 17 0 8 -8 3 -21 -13z"/>
<path d="M4005 7048 l-40 -43 43 40 c23 21 42 40 42 42 0 8 -9 0 -45 -39z"/>
<path d="M3826 6822 c-29 -46 -106 -198 -106 -209 0 -5 28 44 61 107 33 63 65
121 71 128 6 6 8 12 4 12 -3 0 -17 -17 -30 -38z"/>
<path d="M5365 6801 c28 -10 76 -30 109 -45 65 -29 80 -33 51 -12 -30 21 -135
63 -175 70 -28 5 -25 2 15 -13z"/>
<path d="M4918 6783 c7 -3 16 -2 19 1 4 3 -2 6 -13 5 -11 0 -14 -3 -6 -6z"/>
<path d="M4809 6752 c-141 -58 -277 -158 -346 -254 -23 -32 -2 -15 70 56 105
104 193 161 319 206 29 10 46 19 38 19 -8 0 -45 -12 -81 -27z"/>
<path d="M5660 6644 c8 -10 44 -51 80 -89 82 -88 136 -169 161 -242 21 -62 24
-86 8 -63 -8 12 -9 11 -5 -5 3 -11 8 -33 12 -50 4 -16 17 -48 28 -70 19 -37
21 -61 26 -309 4 -203 8 -270 18 -274 19 -6 17 478 -3 592 -29 169 -96 304
-207 421 -64 68 -153 135 -118 89z"/>
<path d="M5625 6634 c6 -6 44 -41 85 -79 71 -66 72 -67 20 -11 -30 31 -68 67
-85 78 -16 12 -25 17 -20 12z"/>
<path d="M3657 6434 c-9 -32 -18 -77 -21 -99 -3 -22 5 1 19 50 13 50 23 94 22
99 -2 6 -11 -17 -20 -50z"/>
<path d="M4316 6348 c-56 -86 -76 -226 -76 -545 0 -233 3 -263 24 -263 8 0 10
55 7 200 -3 222 6 326 45 503 14 65 23 121 21 124 -3 2 -12 -6 -21 -19z"/>
<path d="M3622 6270 c0 -14 2 -19 5 -12 2 6 2 18 0 25 -3 6 -5 1 -5 -13z"/>
<path d="M3652 6230 c0 -14 2 -19 5 -12 2 6 2 18 0 25 -3 6 -5 1 -5 -13z"/>
<path d="M3612 6210 c0 -14 2 -19 5 -12 2 6 2 18 0 25 -3 6 -5 1 -5 -13z"/>
<path d="M6628 6010 c2 -118 5 -222 6 -230 7 -30 4 347 -3 395 -4 28 -5 -47
-3 -165z"/>
<path d="M3632 6128 c-15 -103 -20 -580 -6 -585 8 -3 13 93 17 324 3 180 4
329 3 331 -2 1 -8 -30 -14 -70z"/>
<path d="M3603 6095 c0 -27 2 -38 4 -22 2 15 2 37 0 50 -2 12 -4 0 -4 -28z"/>
<path d="M6601 5808 c0 -162 3 -259 9 -263 12 -7 12 366 0 460 -4 39 -8 -31
-9 -197z"/>
<path d="M3593 5575 c0 -44 2 -61 4 -37 2 23 2 59 0 80 -2 20 -4 1 -4 -43z"/>
<path d="M6630 5536 c0 -20 4 -36 8 -36 12 0 13 58 1 65 -5 4 -9 -10 -9 -29z"/>
<path d="M5936 5454 c-10 -27 -7 -33 28 -48 35 -15 76 -11 76 6 0 5 -5 8 -12
6 -23 -8 -83 20 -80 36 4 21 -4 21 -12 0z"/>
<path d="M4287 5444 c-7 -8 -68 -20 -192 -39 -105 -17 -249 -19 -326 -5 -30 5
-77 12 -105 15 -28 2 -58 7 -67 11 -11 4 -17 1 -17 -8 0 -15 37 -31 115 -48
156 -35 309 -30 506 17 100 23 115 29 111 45 -4 18 -14 23 -25 12z"/>
<path d="M6111 5436 c2 -2 22 -6 44 -9 27 -4 35 -3 25 3 -14 9 -79 15 -69 6z"/>
<path d="M6615 5429 c-46 -14 -239 -39 -300 -39 -29 0 -66 -5 -81 -10 -20 -8
-31 -7 -43 3 -20 18 -146 34 -136 18 18 -30 67 -40 221 -47 131 -5 174 -4 243
11 104 21 131 33 131 57 0 10 -1 18 -2 17 -2 0 -16 -5 -33 -10z"/>
<path d="M4333 5324 c-44 -36 -43 -61 1 -70 19 -3 41 -4 48 -1 7 3 3 6 -10 6
-13 1 -21 5 -17 11 3 5 12 7 20 3 21 -7 19 14 -2 26 -26 14 32 22 225 31 l167
7 -156 1 c-86 1 -176 5 -200 8 -38 5 -48 2 -76 -22z"/>
<path d="M4878 5333 c18 -2 45 -2 60 0 15 2 0 4 -33 4 -33 0 -45 -2 -27 -4z"/>
<path d="M5153 5333 c37 -2 97 -2 135 0 37 2 6 3 -68 3 -74 0 -105 -1 -67 -3z"/>
<path d="M5618 5330 c212 -9 231 -12 212 -35 -11 -13 -5 -15 45 -15 63 0 70
14 19 40 -23 12 -75 15 -249 16 l-220 2 193 -8z"/>
<path d="M6671 5314 c-14 -32 -9 -41 30 -49 45 -10 105 -54 175 -127 115 -120
124 -156 124 -544 0 -281 14 -554 30 -564 4 -3 10 -126 15 -275 15 -538 22
-414 20 365 -1 731 -3 800 -19 855 -10 33 -24 71 -33 85 -9 15 -12 17 -7 5 38
-107 60 -334 50 -515 -3 -63 -7 -142 -8 -175 -1 -33 -5 80 -8 250 -6 303 -7
312 -33 385 -15 41 -45 102 -67 135 l-40 60 46 -50 c38 -40 44 -44 31 -19 -26
51 -102 112 -198 159 -51 25 -93 45 -94 45 -1 0 -7 -12 -14 -26z"/>
<path d="M3380 5244 c-53 -30 -84 -58 -112 -99 -11 -16 -2 -9 20 16 39 44 116
89 129 75 4 -3 -10 -20 -30 -37 -20 -17 -37 -35 -37 -40 0 -12 68 27 106 60
25 21 25 23 7 36 -25 19 -31 19 -83 -11z"/>
<path d="M4986 5261 c-3 -4 6 -6 19 -3 14 2 25 6 25 8 0 8 -39 4 -44 -5z"/>
<path d="M5814 5261 c-11 -11 -2 -20 24 -23 22 -3 17 -6 -26 -16 -29 -7 -70
-12 -92 -12 -45 0 -66 -19 -23 -21 15 -1 66 0 113 1 85 2 121 13 101 33 -7 7
-7 14 0 23 7 9 -2 13 -41 16 -29 1 -54 1 -56 -1z"/>
<path d="M4351 5216 c-18 -22 -3 -26 117 -30 80 -3 109 -1 106 8 -2 6 -17 12
-32 12 -30 1 -88 9 -143 18 -25 5 -39 2 -48 -8z"/>
<path d="M5620 5200 c0 -5 5 -10 10 -10 6 0 10 5 10 10 0 6 -4 10 -10 10 -5 0
-10 -4 -10 -10z"/>
<path d="M3229 5089 c-36 -68 -51 -138 -54 -254 l-4 -120 9 95 c12 117 35 231
55 270 9 17 13 30 11 30 -3 0 -10 -9 -17 -21z"/>
<path d="M3205 4728 c-13 -32 0 -619 16 -656 37 -89 51 12 46 338 -4 258 -9
300 -32 300 -8 0 -15 8 -18 18 -4 16 -4 16 -12 0z"/>
<path d="M3173 4155 c0 -38 2 -53 4 -32 2 20 2 52 0 70 -2 17 -4 1 -4 -38z"/>
<path d="M7053 3065 c0 -33 2 -45 4 -27 2 18 2 45 0 60 -2 15 -4 0 -4 -33z"/>
<path d="M3181 2984 c0 -11 3 -14 6 -6 3 7 2 16 -1 19 -3 4 -6 -2 -5 -13z"/>
<path d="M3229 2983 c-6 -44 21 -154 54 -218 17 -34 17 -38 3 -26 -10 8 -26
31 -36 50 -11 20 -19 31 -20 25 0 -20 62 -104 72 -97 6 3 8 2 5 -4 -9 -14 60
-77 112 -103 23 -12 40 -16 36 -10 -5 8 4 9 32 4 l38 -7 -58 48 c-72 60 -129
154 -160 261 -21 72 -25 79 -50 82 -15 2 -27 0 -28 -5z"/>
<path d="M7042 2970 c0 -14 2 -19 5 -12 2 6 2 18 0 25 -3 6 -5 1 -5 -13z"/>
<path d="M3191 2934 c0 -11 3 -14 6 -6 3 7 2 16 -1 19 -3 4 -6 -2 -5 -13z"/>
<path d="M3201 2894 c0 -11 3 -14 6 -6 3 7 2 16 -1 19 -3 4 -6 -2 -5 -13z"/>
<path d="M6760 2590 c-8 -5 -10 -10 -5 -10 6 0 17 5 25 10 8 5 11 10 5 10 -5
0 -17 -5 -25 -10z"/>
<path d="M5690 2570 c0 -16 7 -20 30 -20 28 0 30 2 20 20 -6 11 -20 20 -30 20
-13 0 -20 -7 -20 -20z"/>
<path d="M6055 2552 c-16 -1 -59 -5 -95 -9 -59 -6 -62 -7 -30 -13 57 -11 377
1 510 19 50 7 -306 10 -385 3z"/>
<path d="M6618 2543 c6 -2 18 -2 25 0 6 3 1 5 -13 5 -14 0 -19 -2 -12 -5z"/>
</g>
</svg>
