<?xml version="1.0" standalone="no"?>
<!DOCTYPE svg PUBLIC "-//W3C//DTD SVG 20010904//EN"
 "http://www.w3.org/TR/2001/REC-SVG-20010904/DTD/svg10.dtd">
<svg version="1.0" xmlns="http://www.w3.org/2000/svg"
 width="1024.000000pt" height="1024.000000pt" viewBox="0 0 1024.000000 1024.000000"
 preserveAspectRatio="xMidYMid meet">

<g transform="translate(0.000000,1024.000000) scale(0.100000,-0.100000)"
fill="#000000" stroke="none">
<path d="M5213 8283 c15 -2 37 -2 50 0 12 2 0 4 -28 4 -27 0 -38 -2 -22 -4z"/>
<path d="M4958 8273 c12 -2 32 -2 45 0 12 2 2 4 -23 4 -25 0 -35 -2 -22 -4z"/>
<path d="M5378 8273 c12 -2 32 -2 45 0 12 2 2 4 -23 4 -25 0 -35 -2 -22 -4z"/>
<path d="M4868 8263 c6 -2 18 -2 25 0 6 3 1 5 -13 5 -14 0 -19 -2 -12 -5z"/>
<path d="M5510 8252 c36 -10 75 -24 87 -31 32 -17 56 -68 55 -119 -1 -24 3
-51 8 -60 24 -44 60 -189 75 -307 25 -199 55 -293 109 -337 30 -25 38 -22 31
11 -6 27 -5 28 25 25 l31 -4 -29 29 c-35 35 -48 81 -102 342 -22 106 -42 205
-45 219 -2 14 6 -6 19 -45 13 -38 36 -137 51 -220 49 -268 65 -292 252 -382
73 -35 148 -66 166 -69 28 -4 26 -2 -13 15 -130 55 -278 131 -297 152 -35 39
-52 90 -89 272 -74 371 -102 426 -247 493 -30 13 -76 26 -103 29 -49 5 -49 5
16 -13z m345 -793 c11 -17 -1 -21 -15 -4 -8 9 -8 15 -2 15 6 0 14 -5 17 -11z"/>
<path d="M4785 8250 c-25 -11 1 -11 35 0 20 6 21 8 5 8 -11 0 -29 -3 -40 -8z"/>
<path d="M4669 8201 c-52 -33 -102 -105 -124 -177 -19 -68 -55 -259 -54 -292
0 -15 13 41 29 123 30 159 39 190 72 243 16 25 23 30 29 20 7 -10 9 -10 9 0 0
7 4 11 9 8 4 -3 6 -18 3 -32 -3 -19 -1 -25 7 -20 6 4 9 11 6 15 -2 5 2 17 10
27 8 10 15 26 15 34 0 8 15 25 33 38 17 12 26 22 19 22 -7 0 -10 5 -7 10 11
17 -8 11 -56 -19z"/>
<path d="M4617 8000 c-4 -14 -7 -34 -7 -45 0 -11 -8 -36 -19 -55 -24 -45 -32
-87 -46 -254 -7 -74 -6 -88 6 -84 18 6 45 133 53 251 4 51 12 113 17 139 11
50 7 91 -4 48z"/>
<path d="M4476 7664 c-4 -20 -5 -38 -3 -40 3 -3 8 11 11 32 4 20 5 38 3 40 -3
3 -8 -11 -11 -32z"/>
<path d="M6898 7610 c-61 -16 -151 -65 -298 -165 -165 -112 -209 -135 -275
-145 -48 -7 -49 -8 -10 -8 62 -2 100 17 272 130 160 106 255 160 304 171 80
20 248 1 233 -26 -4 -7 -4 -9 1 -5 13 12 38 -31 42 -71 3 -37 17 -53 166 -188
31 -28 84 -85 117 -126 33 -41 66 -77 75 -80 8 -4 30 -37 49 -76 20 -38 39
-71 43 -73 17 -7 41 -73 38 -105 -2 -18 1 -33 6 -33 11 0 18 30 23 100 2 30 2
17 2 -30 -3 -109 -20 -147 -164 -362 -123 -182 -132 -199 -131 -225 0 -10 7
-1 14 20 8 21 67 114 131 208 138 204 165 258 172 355 9 138 -37 219 -247 436
-231 239 -320 299 -455 304 -39 2 -88 -1 -108 -6z m757 -561 c9 -17 15 -33 13
-35 -3 -2 -12 12 -21 31 -21 43 -13 47 8 4z"/>
<path d="M3248 7591 c-62 -20 -148 -70 -148 -85 0 -6 5 -5 12 2 19 19 32 14
17 -5 -11 -15 -11 -16 1 -5 17 14 44 16 35 2 -3 -5 1 -10 11 -10 11 0 15 6 11
19 -4 15 5 23 45 40 28 12 66 21 84 21 19 0 34 5 34 10 0 6 21 10 48 10 52 0
174 -51 170 -71 -3 -12 51 -55 106 -85 51 -28 16 7 -48 47 -33 21 -56 39 -51
39 6 0 82 -47 170 -105 153 -101 241 -142 283 -133 9 3 -9 10 -40 17 -45 10
-93 36 -225 123 -218 144 -289 178 -385 184 -54 3 -88 -1 -130 -15z m-13 -21
c-3 -5 -12 -10 -18 -10 -7 0 -6 4 3 10 19 12 23 12 15 0z"/>
<path d="M6930 7580 c0 -5 7 -7 15 -4 8 4 15 8 15 10 0 2 -7 4 -15 4 -8 0 -15
-4 -15 -10z"/>
<path d="M6868 7568 c-16 -5 -28 -14 -28 -18 0 -10 59 7 75 21 12 12 -12 10
-47 -3z"/>
<path d="M4451 7554 c0 -11 3 -14 6 -6 3 7 2 16 -1 19 -3 4 -6 -2 -5 -13z"/>
<path d="M3070 7485 c-11 -13 -10 -14 4 -9 9 3 16 10 16 15 0 13 -6 11 -20 -6z"/>
<path d="M4390 7459 c-14 -12 -46 -32 -72 -45 -27 -13 -48 -27 -48 -29 0 -10
116 54 134 74 24 27 18 26 -14 0z"/>
<path d="M3550 7445 c7 -9 40 -32 73 -51 33 -19 85 -54 116 -78 61 -46 124
-86 136 -86 16 0 -19 30 -88 76 -119 78 -132 87 -140 101 -9 15 -80 53 -98 53
-8 0 -8 -4 1 -15z"/>
<path d="M6649 7439 l-24 -20 28 17 c15 9 27 18 27 20 0 8 -8 4 -31 -17z"/>
<path d="M6600 7410 c-9 -6 -10 -10 -3 -10 6 0 15 5 18 10 8 12 4 12 -15 0z"/>
<path d="M4445 7400 c3 -5 11 -10 16 -10 6 0 7 5 4 10 -3 6 -11 10 -16 10 -6
0 -7 -4 -4 -10z"/>
<path d="M3740 7396 c0 -2 8 -10 18 -17 15 -13 16 -12 3 4 -13 16 -21 21 -21
13z"/>
<path d="M4235 7370 c-3 -6 1 -7 9 -4 18 7 21 14 7 14 -6 0 -13 -4 -16 -10z"/>
<path d="M3780 7366 c0 -3 9 -10 20 -16 11 -6 20 -8 20 -6 0 3 -9 10 -20 16
-11 6 -20 8 -20 6z"/>
<path d="M4190 7350 c-8 -5 -10 -10 -5 -10 6 0 17 5 25 10 8 5 11 10 5 10 -5
0 -17 -5 -25 -10z"/>
<path d="M4100 7310 c-8 -5 -10 -10 -5 -10 6 0 17 5 25 10 8 5 11 10 5 10 -5
0 -17 -5 -25 -10z"/>
<path d="M4058 7293 c7 -3 16 -2 19 1 4 3 -2 6 -13 5 -11 0 -14 -3 -6 -6z"/>
<path d="M6403 7293 c-21 -8 -15 -22 7 -16 11 3 20 9 20 14 0 10 -8 10 -27 2z"/>
<path d="M2636 6934 c-12 -31 -6 -105 13 -158 17 -48 86 -157 224 -351 51 -70
86 -152 88 -202 1 -17 3 -21 6 -10 6 21 21 22 45 1 16 -16 18 -15 24 0 13 35
-7 111 -46 176 -22 36 -48 78 -57 95 -10 16 -22 35 -28 41 -5 7 -26 36 -45 64
-19 28 -48 67 -63 88 -25 32 -76 130 -121 235 -18 40 -30 46 -40 21z"/>
<path d="M2613 6865 c0 -33 2 -45 4 -27 2 18 2 45 0 60 -2 15 -4 0 -4 -33z"/>
<path d="M2621 6790 c-1 -30 39 -100 150 -266 141 -209 154 -234 153 -303 0
-33 3 -46 7 -35 27 68 0 132 -138 333 -127 185 -138 202 -156 246 -9 22 -16
33 -16 25z"/>
<path d="M5038 6393 c12 -2 30 -2 40 0 9 3 -1 5 -23 4 -22 0 -30 -2 -17 -4z"/>
<path d="M5278 6393 c12 -2 32 -2 45 0 12 2 2 4 -23 4 -25 0 -35 -2 -22 -4z"/>
<path d="M4963 6383 c9 -2 23 -2 30 0 6 3 -1 5 -18 5 -16 0 -22 -2 -12 -5z"/>
<path d="M5414 6374 c39 -7 72 -12 74 -10 5 6 -95 26 -121 25 -12 0 9 -7 47
-15z"/>
<path d="M4908 6373 c7 -3 16 -2 19 1 4 3 -2 6 -13 5 -11 0 -14 -3 -6 -6z"/>
<path d="M4868 6363 c7 -3 16 -2 19 1 4 3 -2 6 -13 5 -11 0 -14 -3 -6 -6z"/>
<path d="M5586 6326 c568 -206 899 -763 809 -1360 -8 -55 -13 -101 -11 -103 4
-5 35 118 38 149 0 13 4 3 8 -22 7 -44 7 -44 9 -10 2 19 7 46 11 60 7 18 9 8
8 -37 -2 -118 11 -83 29 75 7 70 -14 297 -38 396 -10 43 -19 80 -19 82 0 2 -4
4 -9 4 -5 0 -5 -16 0 -37 16 -68 8 -69 -17 -3 -13 36 -33 71 -44 79 -11 7 -20
18 -20 23 0 5 -28 60 -62 121 -90 162 -224 323 -358 430 l-35 28 33 -18 c18
-10 49 -33 70 -51 43 -38 78 -60 67 -42 -31 50 -311 233 -375 245 -44 8 -31
-3 63 -51 37 -19 67 -37 67 -39 0 -3 -31 11 -70 30 -70 35 -207 85 -232 85 -7
-1 28 -16 78 -34z"/>
<path d="M4700 6310 c-8 -5 -10 -10 -5 -10 6 0 17 5 25 10 8 5 11 10 5 10 -5
0 -17 -5 -25 -10z"/>
<path d="M4570 6247 c-109 -60 -192 -117 -270 -184 -30 -26 -45 -36 -32 -22
12 14 19 29 15 33 -4 4 -3 10 2 14 6 4 30 30 55 57 l45 50 -54 -50 c-30 -27
-61 -56 -69 -63 -7 -7 -17 -10 -22 -7 -5 3 -12 0 -16 -6 -4 -8 -3 -9 4 -5 7 4
12 5 12 1 0 -3 -11 -10 -25 -15 -16 -6 -25 -17 -25 -30 0 -12 -5 -31 -12 -43
-10 -19 -6 -18 27 7 43 33 42 31 -30 -74 -115 -166 -172 -287 -221 -461 -22
-80 -26 -119 -29 -259 l-3 -165 8 140 c10 173 22 251 60 368 100 310 317 564
625 729 39 21 65 38 60 38 -6 0 -53 -24 -105 -53z"/>
<path d="M7345 6258 c1 -13 5 -22 8 -20 4 1 7 4 7 7 0 3 0 12 0 20 0 8 -4 15
-8 15 -5 0 -8 -10 -7 -22z"/>
<path d="M7385 6220 c2 -32 15 -80 30 -113 15 -32 25 -61 21 -64 -6 -6 -51 88
-61 129 -8 33 -21 38 -74 31 -39 -5 -41 -7 -41 -40 0 -18 13 -60 29 -91 17
-31 39 -82 51 -112 34 -89 70 -153 104 -182 36 -32 69 -39 43 -10 -10 10 -17
31 -17 45 0 22 5 27 24 27 l25 0 -25 55 c-33 76 -30 79 11 11 19 -32 35 -62
35 -66 0 -4 11 -11 24 -14 13 -3 32 -9 43 -12 10 -3 -1 6 -23 20 -43 27 -45
30 -117 191 -43 99 -71 176 -81 225 -3 14 -3 0 -1 -30z"/>
<path d="M2727 5824 c-15 -8 -102 -30 -195 -49 -242 -49 -311 -65 -362 -87
-44 -19 -100 -64 -100 -80 0 -24 72 11 110 54 19 21 149 61 270 82 192 33 280
57 300 82 15 17 12 17 -23 -2z"/>
<path d="M2746 5794 c-17 -12 -18 -14 -3 -14 9 0 18 -6 18 -12 1 -7 2 -20 3
-28 2 -21 37 -14 59 12 22 26 7 49 -18 28 -17 -14 -17 -14 -31 12 -8 14 -11
15 -28 2z"/>
<path d="M7645 5802 c11 -5 99 -24 195 -41 96 -18 202 -41 235 -52 60 -20 139
-58 120 -58 -5 0 -21 6 -35 14 -34 20 -46 18 -27 -3 15 -16 15 -19 -3 -30 -28
-17 -26 -24 19 -68 54 -55 61 -99 67 -429 3 -154 9 -296 14 -315 5 -19 12 -53
16 -75 l7 -40 13 32 c20 48 32 142 39 313 9 209 -6 366 -49 515 -4 11 3 1 15
-23 30 -64 38 -125 45 -357 10 -319 -15 -468 -92 -546 -65 -67 -151 -95 -483
-158 -118 -22 -159 -34 -175 -51 l-21 -21 45 20 c25 11 131 36 235 55 105 20
213 42 240 50 121 37 207 119 240 229 22 75 38 313 30 462 -18 370 -71 459
-308 515 -46 11 -144 29 -218 40 -74 12 -145 23 -159 26 -21 4 -22 3 -5 -4z"/>
<path d="M6444 5738 c4 -18 9 -51 11 -73 4 -51 8 -68 40 -195 18 -73 31 -160
40 -285 12 -158 26 -245 42 -245 15 0 43 23 43 36 0 10 8 13 26 10 16 -3 27 0
30 9 5 11 10 10 27 -5 11 -11 23 -20 26 -20 10 0 44 90 44 116 0 13 3 27 7 29
15 9 -2 167 -24 229 -8 23 -17 53 -20 68 -3 15 -12 33 -19 40 -7 7 -16 20 -20
28 -20 42 -65 105 -75 106 -7 1 -16 2 -21 3 -4 0 -31 31 -59 69 -90 121 -109
137 -98 80z"/>
<path d="M2026 5473 c-28 -73 -32 -550 -6 -688 12 -63 41 -128 62 -141 7 -5 5
4 -5 19 -17 26 -15 53 3 42 4 -3 15 -2 24 1 15 6 16 46 14 388 -2 231 -7 384
-13 388 -5 4 -15 2 -22 -3 -8 -7 -18 -7 -31 0 -16 8 -21 7 -26 -6z"/>
<path d="M1986 5379 c-9 -86 -8 -467 2 -472 4 -3 7 116 7 264 0 148 0 269 -1
269 -1 0 -4 -28 -8 -61z"/>
<path d="M3892 5338 c0 -7 -3 -65 -6 -128 l-5 -115 9 90 c5 50 11 107 14 128
2 20 1 37 -3 37 -4 0 -8 -6 -9 -12z"/>
<path d="M3730 5270 c0 -22 5 -40 10 -40 6 0 10 18 10 40 0 22 -4 40 -10 40
-5 0 -10 -18 -10 -40z"/>
<path d="M3726 5157 c-9 -52 -4 -203 7 -214 17 -16 19 15 10 134 -8 116 -10
123 -17 80z"/>
<path d="M3932 4985 c0 -16 2 -22 5 -12 2 9 2 23 0 30 -3 6 -5 -1 -5 -18z"/>
<path d="M3942 4920 c0 -14 2 -19 5 -12 2 6 2 18 0 25 -3 6 -5 1 -5 -13z"/>
<path d="M1993 4845 c0 -27 2 -38 4 -22 2 15 2 37 0 50 -2 12 -4 0 -4 -28z"/>
<path d="M3951 4874 c0 -11 3 -14 6 -6 3 7 2 16 -1 19 -3 4 -6 -2 -5 -13z"/>
<path d="M2002 4770 c0 -14 2 -19 5 -12 2 6 2 18 0 25 -3 6 -5 1 -5 -13z"/>
<path d="M4011 4685 c0 -5 6 -21 14 -35 8 -14 14 -20 14 -15 0 6 -6 21 -14 35
-8 14 -14 21 -14 15z"/>
<path d="M8201 4654 c-7 -8 -11 -17 -9 -20 3 -2 13 5 23 16 10 11 14 20 9 20
-5 -1 -15 -8 -23 -16z"/>
<path d="M2095 4596 c64 -57 137 -79 415 -127 102 -17 198 -38 213 -46 16 -8
31 -12 34 -9 12 12 -63 37 -173 56 -254 45 -331 62 -384 85 -30 13 -62 26 -70
29 -8 3 -26 13 -40 22 -19 12 -18 10 5 -10z"/>
<path d="M4040 4617 c0 -4 18 -44 40 -89 39 -82 39 -83 10 -50 -32 35 -38 32
-15 -8 23 -40 19 -57 -7 -34 l-22 19 19 -30 c63 -101 148 -197 239 -270 27
-22 65 -53 84 -69 18 -16 41 -30 50 -31 33 -4 77 -18 115 -37 46 -23 94 -42
85 -33 -3 3 -30 22 -59 41 -64 42 -44 39 66 -10 139 -61 353 -114 422 -103 22
3 20 4 -10 6 -138 5 -375 82 -516 167 -207 126 -326 246 -451 454 -28 46 -50
80 -50 77z"/>
<path d="M7510 4496 c0 -18 33 -30 60 -21 35 11 23 31 -20 33 -30 2 -40 -1
-40 -12z"/>
<path d="M2803 4482 c-9 -6 -7 -12 7 -25 11 -9 24 -17 29 -17 8 0 21 -23 21
-36 0 -3 -9 -8 -19 -12 -19 -7 -18 -11 18 -88 33 -70 65 -146 96 -229 l7 -20
8 20 c6 14 9 15 9 5 1 -24 55 -18 59 6 1 10 -27 91 -63 179 -50 124 -73 167
-100 193 -35 33 -51 38 -72 24z"/>
<path d="M2816 4315 c20 -44 52 -114 71 -155 19 -41 39 -93 44 -115 8 -40 8
-40 5 11 -3 62 -84 257 -127 305 l-29 34 36 -80z"/>
<path d="M6045 4276 c-136 -139 -270 -225 -461 -296 -43 -16 -74 -29 -68 -30
14 0 176 55 205 71 22 11 23 11 10 -5 -8 -10 -40 -31 -70 -47 -75 -40 -27 -30
97 20 94 38 217 119 281 185 37 38 37 55 1 36 -48 -26 -34 -4 98 153 35 40 1
9 -93 -87z"/>
<path d="M7510 4360 c-6 -11 -8 -20 -6 -20 3 0 10 9 16 20 6 11 8 20 6 20 -3
0 -10 -9 -16 -20z"/>
<path d="M7477 4295 c-24 -50 -20 -58 4 -12 11 22 19 41 17 43 -3 2 -12 -12
-21 -31z"/>
<path d="M7415 4153 c-55 -132 -50 -193 28 -313 l29 -45 -31 35 c-17 19 -45
65 -63 103 -17 37 -35 67 -39 67 -5 0 -17 10 -29 22 -28 30 -45 11 -45 -50 1
-38 8 -58 38 -102 69 -100 107 -152 165 -227 31 -41 73 -101 93 -134 20 -33
44 -68 53 -78 10 -11 16 -36 16 -67 0 -27 3 -59 6 -72 l7 -23 19 28 20 28 -7
-30 c-16 -76 -69 -147 -240 -323 -121 -126 -130 -137 -41 -52 123 117 246 262
279 330 28 56 32 74 31 140 -1 101 -28 159 -169 355 -128 180 -135 193 -142
259 -5 45 0 66 31 141 19 49 34 90 32 92 -2 2 -20 -36 -41 -84z m96 -410 c13
-16 12 -17 -3 -4 -10 7 -18 15 -18 17 0 8 8 3 21 -13z m82 -115 l19 -33 -21
25 c-12 14 -27 34 -33 45 -9 17 -9 18 3 8 8 -6 22 -26 32 -45z m67 -112 c0
-12 -5 -7 -19 24 -11 24 -11 24 3 6 9 -11 16 -24 16 -30z m17 -68 c-3 -7 -5
-2 -5 12 0 14 2 19 5 13 2 -7 2 -19 0 -25z m10 -55 c-3 -10 -5 -4 -5 12 0 17
2 24 5 18 2 -7 2 -21 0 -30z"/>
<path d="M2956 3960 c-4 -27 -9 -56 -12 -63 -3 -8 5 -13 21 -15 14 -1 25 2 25
7 0 4 11 20 23 35 28 32 26 76 -3 76 -10 0 -25 2 -33 6 -11 4 -16 -7 -21 -46z"/>
<path d="M2922 3963 c-12 -38 -73 -137 -165 -265 -27 -38 -46 -68 -44 -68 6 0
133 175 178 245 27 41 54 113 47 121 -3 2 -10 -13 -16 -33z"/>
<path d="M5415 3934 l-60 -13 53 5 c29 2 62 9 75 14 31 12 3 10 -68 -6z"/>
<path d="M5288 3913 c12 -2 32 -2 45 0 12 2 2 4 -23 4 -25 0 -35 -2 -22 -4z"/>
<path d="M5138 3903 c23 -2 61 -2 85 0 23 2 4 4 -43 4 -47 0 -66 -2 -42 -4z"/>
<path d="M2634 3405 c-10 -42 6 -116 39 -179 17 -32 33 -54 35 -48 2 6 35 -22
74 -61 43 -44 73 -67 75 -59 4 10 8 10 21 0 27 -22 5 7 -55 71 -73 79 -109
144 -117 215 -5 36 -12 56 -21 56 -7 0 -15 7 -19 15 -8 23 -25 18 -32 -10z
m50 -141 c3 -8 2 -12 -4 -9 -6 3 -10 10 -10 16 0 14 7 11 14 -7z"/>
<path d="M2611 3374 c-1 -48 25 -161 35 -151 2 2 -1 17 -7 33 -6 16 -14 61
-19 99 -7 66 -7 67 -9 19z"/>
<path d="M2720 3144 c0 -6 17 -26 38 -45 l37 -34 -35 40 c-19 22 -36 42 -37
44 -2 2 -3 0 -3 -5z"/>
<path d="M6376 3045 c-9 -23 -8 -25 9 -25 8 0 15 -5 15 -11 0 -6 -9 -9 -20 -6
-11 3 -23 1 -26 -4 -3 -5 2 -9 10 -9 8 0 17 -4 21 -10 3 -5 -14 -7 -45 -3 -41
5 -64 1 -121 -22 -39 -15 -69 -29 -67 -30 2 -2 35 8 73 21 109 38 124 33 355
-121 196 -130 255 -157 351 -163 122 -7 216 30 316 126 22 20 28 28 14 16 -94
-75 -158 -108 -233 -123 -24 -4 -53 -4 -63 0 -15 6 -11 8 16 8 41 1 109 23
142 46 17 12 18 15 5 15 -9 0 -23 -6 -31 -14 -21 -22 -128 -31 -158 -15 -42
23 -89 37 -95 28 -3 -5 -13 -9 -22 -9 -16 1 -15 2 1 11 15 9 15 12 4 24 -25
24 -186 138 -336 237 -70 45 -106 56 -115 33z m107 -120 c25 -14 51 -33 59
-43 11 -14 9 -14 -17 2 -102 65 -126 87 -42 41z m217 -145 c14 -10 52 -32 85
-49 33 -17 53 -31 44 -31 -17 0 -170 90 -216 128 -23 19 -20 18 17 -4 25 -15
56 -35 70 -44z m223 -97 c-7 -2 -19 -2 -25 0 -7 3 -2 5 12 5 14 0 19 -2 13 -5z"/>
<path d="M2970 2971 c0 -6 0 -14 0 -18 0 -5 5 -8 10 -8 6 0 9 -3 8 -6 -5 -10
24 -39 32 -34 4 3 10 -4 13 -15 3 -13 14 -20 28 -20 22 0 22 0 3 22 -10 12
-29 31 -42 41 -12 10 -29 25 -37 33 -8 9 -15 11 -15 5z"/>
<path d="M3920 2959 c-24 -11 -110 -63 -189 -116 -80 -53 -171 -109 -202 -125
-71 -36 -153 -51 -205 -39 l-39 9 50 2 c48 1 107 17 75 20 -8 1 -33 3 -55 4
-22 2 -61 8 -88 14 -46 9 -65 3 -52 -18 9 -14 -1 -12 -36 6 -17 8 -33 13 -36
10 -4 -3 21 -18 53 -33 51 -24 71 -28 154 -28 86 0 101 3 161 31 36 17 131 75
211 128 235 155 289 171 398 120 135 -63 250 -112 245 -104 -3 5 -45 28 -93
50 -197 94 -267 108 -352 69z"/>
<path d="M7354 2948 l-19 -23 23 19 c12 11 22 21 22 23 0 8 -8 2 -26 -19z"/>
<path d="M6015 2866 c-39 -18 -79 -44 -90 -56 -18 -22 -17 -22 15 3 20 14 65
39 100 56 36 16 60 30 55 30 -6 1 -42 -14 -80 -33z"/>
<path d="M5895 2870 c3 -5 10 -10 16 -10 5 0 9 5 9 10 0 6 -7 10 -16 10 -8 0
-12 -4 -9 -10z"/>
<path d="M2990 2846 c25 -28 100 -91 100 -84 0 2 -28 28 -62 58 -35 29 -52 41
-38 26z"/>
<path d="M3010 2856 c0 -2 8 -10 18 -17 15 -13 16 -12 3 4 -13 16 -21 21 -21
13z"/>
<path d="M4494 2803 c1 -29 -1 -54 -6 -55 -5 -2 0 -48 12 -103 11 -55 29 -148
39 -206 30 -166 56 -242 99 -287 15 -16 15 -22 2 -22 -37 0 -102 195 -135 405
-16 103 -43 210 -51 203 -2 -3 18 -116 45 -251 54 -275 77 -336 142 -388 39
-31 125 -69 155 -69 9 0 -21 18 -66 41 -45 23 -79 43 -76 46 3 3 12 0 21 -7 9
-7 19 -10 23 -6 4 4 -1 12 -11 17 -12 7 -16 17 -12 30 4 10 2 19 -3 19 -5 0
-10 24 -11 53 -1 47 -16 133 -42 242 -5 22 -13 79 -18 128 -12 112 -33 175
-76 223 l-34 39 3 -52z"/>
<path d="M4405 2798 c17 -19 31 -34 33 -32 8 6 -20 45 -41 55 -18 10 -17 7 8
-23z"/>
<path d="M5886 2751 c-9 -16 -34 -120 -56 -232 -44 -223 -62 -286 -95 -339
-37 -57 -65 -81 -129 -111 -63 -29 -63 -40 0 -14 86 36 152 117 188 230 9 28
32 137 51 244 20 106 42 206 51 222 8 16 12 29 10 29 -3 0 -12 -13 -20 -29z"/>
<path d="M5670 2145 c-13 -14 -40 -32 -60 -42 -19 -9 -29 -18 -22 -21 14 -4
79 37 108 69 25 28 4 22 -26 -6z"/>
<path d="M5518 2033 c7 -3 16 -2 19 1 4 3 -2 6 -13 5 -11 0 -14 -3 -6 -6z"/>
</g>
</svg>
