<?xml version="1.0" standalone="no"?>
<!DOCTYPE svg PUBLIC "-//W3C//DTD SVG 20010904//EN"
 "http://www.w3.org/TR/2001/REC-SVG-20010904/DTD/svg10.dtd">
<svg version="1.0" xmlns="http://www.w3.org/2000/svg"
 width="1024.000000pt" height="1024.000000pt" viewBox="0 0 1024.000000 1024.000000"
 preserveAspectRatio="xMidYMid meet">

<g transform="translate(0.000000,1024.000000) scale(0.100000,-0.100000)"
fill="#000000" stroke="none">
<path d="M6055 6966 c-232 -76 -377 -257 -394 -491 l-6 -90 -150 -100 c-192
-127 -596 -373 -701 -427 l-81 -42 -49 31 c-85 55 -166 90 -259 113 -77 19
-107 22 -205 17 -141 -7 -207 -23 -329 -83 -78 -39 -110 -62 -182 -133 -74
-73 -93 -100 -132 -181 -59 -124 -77 -201 -77 -332 0 -336 195 -598 520 -700
64 -19 96 -23 215 -23 102 0 158 5 205 18 81 22 199 77 263 123 38 28 55 34
76 29 91 -23 920 -434 1001 -497 20 -16 27 -35 37 -96 53 -318 371 -537 685
-471 73 16 183 68 244 117 60 47 143 166 174 249 28 73 37 209 21 295 -52 268
-305 460 -590 445 -115 -5 -171 -22 -275 -82 -95 -54 -70 -58 -321 52 -196 85
-479 230 -642 327 l-113 67 -1 117 c0 64 -4 141 -8 170 -6 40 -4 58 8 75 14
21 14 21 -3 7 -16 -12 -19 -12 -27 3 -6 9 -16 17 -24 17 -14 0 -77 32 -105 54
-12 9 -11 6 2 -15 50 -79 78 -267 60 -399 -6 -41 -10 -76 -8 -77 1 -1 17 1 34
6 27 8 32 7 32 -7 1 -15 2 -15 15 2 8 10 16 23 17 28 2 5 57 -23 123 -63 208
-124 651 -344 808 -400 21 -7 43 -19 48 -25 8 -9 31 0 92 37 140 85 262 111
406 85 88 -16 194 -61 226 -96 19 -21 19 -21 -9 -11 -15 6 -30 11 -33 11 -3 0
32 -37 79 -83 69 -67 89 -93 107 -142 30 -80 41 -143 41 -236 0 -189 -62 -308
-212 -408 -67 -45 -69 -52 -5 -20 58 30 31 0 -31 -34 -139 -75 -347 -77 -490
-3 -117 61 -231 183 -272 292 -11 31 -26 90 -32 130 l-12 74 -65 39 c-140 83
-237 133 -556 288 -351 170 -372 180 -431 193 -34 8 -41 5 -78 -25 -57 -47
-169 -100 -262 -126 -186 -52 -420 -15 -589 92 -74 46 -184 161 -233 242 -97
161 -124 387 -68 572 18 60 98 192 156 258 203 231 533 303 832 183 63 -26
158 -80 188 -108 11 -10 23 -18 29 -18 5 0 14 -13 20 -30 5 -16 15 -30 21 -30
7 0 9 6 6 13 -3 6 -9 20 -12 30 -4 9 -10 17 -15 17 -5 0 -9 8 -9 18 0 12 21
28 63 49 117 58 520 304 705 431 92 63 126 82 135 73 15 -15 27 -14 21 3 -10
25 16 214 36 270 12 30 46 89 77 131 153 210 422 280 663 171 58 -26 115 -63
75 -49 -11 4 5 -18 36 -49 60 -61 117 -160 143 -247 38 -131 4 -351 -69 -447
-36 -47 -31 -54 5 -9 17 21 40 45 51 53 19 13 19 13 2 -15 -60 -95 -179 -195
-280 -233 -71 -27 -224 -38 -304 -21 -71 15 -154 48 -204 81 -25 17 -44 24
-50 18 -5 -5 -19 -15 -30 -23 -18 -13 -17 -13 12 -3 29 11 39 9 105 -24 108
-53 168 -68 276 -68 172 0 304 52 414 162 171 173 212 408 108 623 -21 44 -55
99 -75 122 -54 63 -173 138 -266 168 -108 34 -242 34 -344 1z m715 -420 c0
-26 -6 -18 -14 19 -5 22 -4 26 4 15 5 -8 10 -24 10 -34z m7 -133 c-2 -21 -4
-4 -4 37 0 41 2 58 4 38 2 -21 2 -55 0 -75z m-1822 -990 c12 -29 18 -245 8
-283 -8 -28 -11 -7 -16 110 -4 80 -9 155 -13 168 -7 26 10 30 21 5z m1909
-999 c3 -8 2 -12 -4 -9 -6 3 -10 10 -10 16 0 14 7 11 14 -7z m20 -40 c3 -8 2
-12 -4 -9 -6 3 -10 10 -10 16 0 14 7 11 14 -7z m39 -256 c-7 -33 -8 -22 -9 58
0 93 0 95 8 41 5 -32 5 -76 1 -99z"/>
<path d="M5742 6623 c-27 -62 -40 -122 -45 -204 -4 -66 -4 -67 34 -103 21 -21
52 -60 70 -87 26 -41 30 -56 25 -88 -5 -34 -3 -39 20 -50 15 -6 29 -10 32 -7
5 6 -53 126 -100 206 -31 51 -33 62 -36 160 -2 70 2 123 12 160 8 30 13 56 12
58 -2 1 -13 -19 -24 -45z"/>
<path d="M6570 6067 c-14 -12 -39 -32 -55 -45 -22 -17 -24 -20 -7 -12 13 6 31
18 40 26 9 7 26 20 37 28 11 8 18 17 15 19 -3 3 -16 -4 -30 -16z"/>
<path d="M5886 6055 c4 -8 11 -15 16 -15 6 0 5 6 -2 15 -7 8 -14 15 -16 15 -2
0 -1 -7 2 -15z"/>
<path d="M5600 5864 c-85 -47 -159 -91 -165 -96 -5 -6 15 3 45 19 269 148 294
163 277 163 -1 0 -72 -39 -157 -86z"/>
<path d="M5322 5703 c-94 -61 -168 -113 -107 -77 48 29 198 124 204 129 15 16
-17 -2 -97 -52z"/>
<path d="M3667 5651 c-66 -73 -126 -220 -141 -342 -9 -75 9 -216 39 -296 26
-67 79 -163 124 -221 30 -38 127 -105 218 -151 89 -45 92 -38 4 9 -86 46 -162
116 -231 213 -79 111 -117 270 -106 442 9 148 43 250 113 343 36 48 22 50 -20
3z"/>
<path d="M5133 5579 c-24 -17 -43 -32 -43 -35 0 -3 20 9 45 26 25 17 45 33 45
35 0 7 -2 6 -47 -26z"/>
<path d="M5059 5523 c-13 -16 -12 -17 4 -4 16 13 21 21 13 21 -2 0 -10 -8 -17
-17z"/>
<path d="M5019 5493 c-13 -16 -12 -17 4 -4 9 7 17 15 17 17 0 8 -8 3 -21 -13z"/>
<path d="M4718 4776 l-28 -35 26 3 c27 3 59 40 49 56 -10 16 -18 12 -47 -24z"/>
<path d="M4000 4601 c8 -5 33 -12 55 -15 l40 -6 -45 15 c-50 16 -73 19 -50 6z"/>
<path d="M4108 4573 c7 -3 16 -2 19 1 4 3 -2 6 -13 5 -11 0 -14 -3 -6 -6z"/>
<path d="M5944 4428 l-2 -41 14 33 c17 40 17 50 1 50 -8 0 -13 -15 -13 -42z"/>
<path d="M5857 4252 c-12 -13 -17 -37 -17 -78 0 -151 106 -349 221 -414 42
-23 41 -22 -28 47 -112 110 -154 213 -156 378 -1 47 -2 85 -2 85 -1 0 -9 -8
-18 -18z"/>
<path d="M6268 3673 c6 -2 18 -2 25 0 6 3 1 5 -13 5 -14 0 -19 -2 -12 -5z"/>
<path d="M6337 3663 c18 -2 50 -2 70 0 21 2 7 4 -32 4 -38 0 -55 -2 -38 -4z"/>
</g>
</svg>
