<?xml version="1.0" standalone="no"?>
<!DOCTYPE svg PUBLIC "-//W3C//DTD SVG 20010904//EN"
 "http://www.w3.org/TR/2001/REC-SVG-20010904/DTD/svg10.dtd">
<svg version="1.0" xmlns="http://www.w3.org/2000/svg"
 width="1024.000000pt" height="1024.000000pt" viewBox="0 0 1024.000000 1024.000000"
 preserveAspectRatio="xMidYMid meet">

<g transform="translate(0.000000,1024.000000) scale(0.100000,-0.100000)"
fill="#000000" stroke="none">
<path d="M4985 8986 c-47 -22 -439 -276 -460 -299 -17 -18 84 42 215 128 164
107 193 122 270 144 36 11 59 20 51 20 -7 1 -11 7 -7 16 8 21 -11 19 -69 -9z"/>
<path d="M5187 8996 c-4 -11 9 -19 51 -31 62 -18 101 -40 327 -186 151 -96
215 -134 215 -125 0 3 -21 18 -47 33 -27 15 -129 81 -228 147 -172 115 -277
176 -301 176 -7 0 -14 -6 -17 -14z"/>
<path d="M5330 8906 c0 -4 277 -193 310 -211 38 -21 -15 18 -130 96 -153 104
-180 121 -180 115z"/>
<path d="M4780 8820 c-9 -6 -10 -10 -3 -10 6 0 15 5 18 10 8 12 4 12 -15 0z"/>
<path d="M5082 8808 c-7 -7 -12 -18 -12 -25 0 -8 -18 -32 -40 -54 -22 -22 -40
-45 -40 -50 0 -13 77 40 84 58 4 10 14 13 31 9 28 -7 30 -2 14 43 -12 34 -19
37 -37 19z"/>
<path d="M5150 8771 c0 -17 5 -31 10 -31 6 0 10 11 10 24 0 14 -4 28 -10 31
-6 4 -10 -7 -10 -24z"/>
<path d="M5177 8740 c-3 -11 0 -20 6 -20 6 0 27 -15 45 -32 19 -18 31 -26 26
-18 -59 97 -68 105 -77 70z"/>
<path d="M4478 8664 c-38 -20 -36 -28 2 -9 17 9 30 18 30 20 0 7 -1 6 -32 -11z"/>
<path d="M4393 8614 c-24 -14 -43 -27 -43 -30 0 -6 67 33 85 48 17 15 1 8 -42
-18z"/>
<path d="M5830 8621 c14 -11 31 -21 39 -21 18 0 14 4 -29 24 l-35 17 25 -20z"/>
<path d="M5077 8578 c-15 -5 -25 -13 -22 -18 5 -8 65 16 65 26 0 6 -11 4 -43
-8z"/>
<path d="M4314 8564 c-18 -14 -18 -15 4 -4 12 6 22 13 22 15 0 8 -5 6 -26 -11z"/>
<path d="M5155 8570 c11 -5 27 -9 35 -9 9 0 8 4 -5 9 -11 5 -27 9 -35 9 -9 0
-8 -4 5 -9z"/>
<path d="M5950 8556 c0 -3 9 -10 20 -16 11 -6 20 -8 20 -6 0 3 -9 10 -20 16
-11 6 -20 8 -20 6z"/>
<path d="M6000 8526 c0 -2 7 -7 16 -10 8 -3 12 -2 9 4 -6 10 -25 14 -25 6z"/>
<path d="M5210 8511 c0 -5 5 -13 10 -16 6 -3 10 -2 10 4 0 5 -4 13 -10 16 -5
3 -10 2 -10 -4z"/>
<path d="M4975 8450 c-3 -11 -11 -20 -16 -20 -5 0 -9 -4 -9 -10 0 -20 19 -9
34 20 8 17 11 30 6 30 -5 0 -12 -9 -15 -20z"/>
<path d="M5260 8450 c6 -11 15 -20 20 -20 6 0 10 -6 10 -13 0 -15 46 -60 73
-70 9 -3 -11 23 -46 58 -34 36 -63 65 -65 65 -1 0 2 -9 8 -20z"/>
<path d="M4557 8181 c-64 -37 -80 -53 -41 -42 38 11 104 50 104 62 0 13 -9 10
-63 -20z"/>
<path d="M5530 8199 c0 -18 28 -41 35 -29 4 6 16 8 28 5 12 -3 6 3 -13 14 -40
23 -50 25 -50 10z"/>
<path d="M5700 8117 c0 -19 16 -31 24 -18 3 5 -1 14 -9 21 -12 10 -15 10 -15
-3z"/>
<path d="M4370 8081 c-38 -12 -168 -79 -175 -91 -3 -6 -11 -8 -16 -5 -5 4 -9
1 -9 -4 0 -15 16 -14 53 3 18 7 59 25 91 38 33 13 66 34 74 46 8 12 13 22 11
21 -2 0 -15 -4 -29 -8z"/>
<path d="M2865 8035 c-93 -24 -162 -44 -153 -44 20 -1 306 65 340 79 54 21
-23 7 -187 -35z"/>
<path d="M7220 8069 c35 -15 268 -69 288 -68 17 1 -284 78 -303 78 -5 0 1 -5
15 -10z"/>
<path d="M7268 8023 c7 -3 16 -2 19 1 4 3 -2 6 -13 5 -11 0 -14 -3 -6 -6z"/>
<path d="M2928 8013 c7 -3 16 -2 19 1 4 3 -2 6 -13 5 -11 0 -14 -3 -6 -6z"/>
<path d="M7308 8013 c7 -3 16 -2 19 1 4 3 -2 6 -13 5 -11 0 -14 -3 -6 -6z"/>
<path d="M2888 8003 c7 -3 16 -2 19 1 4 3 -2 6 -13 5 -11 0 -14 -3 -6 -6z"/>
<path d="M7348 8003 c6 -2 18 -2 25 0 6 3 1 5 -13 5 -14 0 -19 -2 -12 -5z"/>
<path d="M7435 7984 c28 -7 55 -13 60 -13 17 2 -69 27 -90 27 -11 0 3 -6 30
-14z"/>
<path d="M7538 7993 c7 -3 16 -2 19 1 4 3 -2 6 -13 5 -11 0 -14 -3 -6 -6z"/>
<path d="M2798 7983 c7 -3 16 -2 19 1 4 3 -2 6 -13 5 -11 0 -14 -3 -6 -6z"/>
<path d="M7585 7980 c11 -5 27 -9 35 -9 9 0 8 4 -5 9 -11 5 -27 9 -35 9 -9 0
-8 -4 5 -9z"/>
<path d="M2758 7973 c7 -3 16 -2 19 1 4 3 -2 6 -13 5 -11 0 -14 -3 -6 -6z"/>
<path d="M4110 7961 c-25 -9 -66 -27 -90 -38 -104 -48 -262 -102 -520 -178
-208 -60 -334 -92 -399 -100 -42 -5 -70 -15 -41 -15 21 0 -7 -27 -37 -35 -14
-3 -23 -8 -21 -10 6 -6 283 61 493 120 167 46 302 92 400 137 28 12 52 23 55
23 56 10 210 84 210 102 0 7 -1 13 -2 13 -2 -1 -23 -9 -48 -19z"/>
<path d="M7518 7963 c7 -3 16 -2 19 1 4 3 -2 6 -13 5 -11 0 -14 -3 -6 -6z"/>
<path d="M7648 7963 c7 -3 16 -2 19 1 4 3 -2 6 -13 5 -11 0 -14 -3 -6 -6z"/>
<path d="M6121 7956 c37 -37 219 -121 243 -113 6 2 19 0 28 -4 10 -6 19 -5 23
1 3 5 0 10 -8 10 -7 0 -35 10 -63 23 -27 13 -78 34 -114 47 -36 13 -69 27 -74
32 -10 8 -43 12 -35 4z"/>
<path d="M7555 7955 c6 -2 46 -16 90 -29 52 -16 73 -20 60 -10 -11 8 -36 19
-55 24 -42 11 -109 22 -95 15z"/>
<path d="M7738 7936 c34 -13 81 -36 104 -51 48 -32 49 -33 103 -77 l39 -33
-23 33 c-12 17 -37 43 -54 56 -42 32 -152 83 -197 90 -24 4 -15 -1 28 -18z"/>
<path d="M2437 7916 c-32 -13 -65 -30 -75 -37 -38 -28 -74 -65 -84 -84 -10
-18 -8 -18 14 3 13 12 33 22 44 22 11 0 27 13 37 30 11 18 41 40 80 59 74 36
65 40 -16 7z"/>
<path d="M6424 7828 c-4 -7 -3 -8 4 -4 7 4 12 3 12 -3 0 -9 56 -27 73 -23 4 1
7 -2 7 -7 0 -9 74 -40 125 -51 50 -11 65 5 19 20 -22 7 -43 15 -49 19 -5 3
-15 6 -22 7 -21 3 -87 25 -120 40 -38 17 -40 17 -49 2z"/>
<path d="M2430 7786 c0 -8 5 -18 10 -21 6 -3 10 -13 10 -21 0 -18 38 -53 58
-54 6 0 12 9 12 20 0 11 -7 20 -15 20 -9 0 -20 12 -26 27 -15 39 -49 59 -49
29z"/>
<path d="M2255 7759 c-4 -6 -5 -12 -2 -15 2 -3 7 2 10 11 7 17 1 20 -8 4z"/>
<path d="M7776 7745 c-8 -8 -18 -15 -21 -15 -4 0 -18 -9 -32 -20 -19 -15 -22
-20 -9 -20 15 0 99 69 84 70 -4 0 -13 -7 -22 -15z"/>
<path d="M6846 7708 c3 -4 12 -8 20 -8 8 0 14 -5 14 -11 0 -5 4 -8 10 -4 5 3
28 -3 52 -14 63 -28 139 -44 151 -32 11 11 8 12 -43 26 -14 3 -41 11 -60 16
-75 21 -149 35 -144 27z"/>
<path d="M7966 7683 c4 -16 10 -35 15 -44 38 -75 42 -105 49 -349 l6 -245 2
254 c2 246 -11 414 -28 366 -6 -18 -9 -17 -24 13 -20 39 -29 41 -20 5z"/>
<path d="M2220 7653 c-6 -27 -13 -136 -15 -243 l-3 -195 8 159 c5 87 11 161
14 164 3 3 6 -70 6 -163 0 -93 2 -166 4 -164 3 3 6 98 8 211 2 148 7 211 16
220 6 6 12 21 12 33 -1 17 -3 16 -16 -7 -19 -36 -23 -35 -18 2 8 47 -3 35 -16
-17z"/>
<path d="M7111 7631 c-8 -5 -2 -12 15 -20 16 -7 31 -8 36 -3 11 11 -35 32 -51
23z"/>
<path d="M2658 7623 c7 -3 16 -2 19 1 4 3 -2 6 -13 5 -11 0 -14 -3 -6 -6z"/>
<path d="M7453 7606 c-10 -11 -9 -15 3 -20 40 -15 83 6 53 25 -20 13 -42 10
-56 -5z"/>
<path d="M2728 7603 c6 -2 18 -2 25 0 6 3 1 5 -13 5 -14 0 -19 -2 -12 -5z"/>
<path d="M7652 7568 c7 -15 15 -23 17 -17 2 6 -4 18 -13 27 -15 15 -15 15 -4
-10z"/>
<path d="M7987 7480 c10 -169 21 -199 22 -62 1 74 -3 121 -8 117 -5 -3 -12 5
-14 17 -3 13 -3 -20 0 -72z"/>
<path d="M2606 7521 c-3 -5 1 -12 10 -15 22 -8 25 -4 9 11 -8 7 -16 9 -19 4z"/>
<path d="M7657 7397 c-7 -19 8 -41 22 -33 6 4 16 17 23 29 10 19 9 20 -4 10
-10 -9 -18 -9 -25 -2 -7 7 -12 6 -16 -4z"/>
<path d="M2243 7130 c0 -41 2 -58 4 -37 2 20 2 54 0 75 -2 20 -4 3 -4 -38z"/>
<path d="M2591 7184 c0 -11 3 -14 6 -6 3 7 2 16 -1 19 -3 4 -6 -2 -5 -13z"/>
<path d="M7651 7175 c0 -12 -5 -25 -10 -30 -13 -14 -29 -165 -21 -195 l7 -25
11 27 c6 14 10 46 10 70 -1 23 2 64 6 89 4 26 6 55 3 65 -4 17 -5 17 -6 -1z"/>
<path d="M2597 7136 c-9 -22 -9 -81 0 -169 5 -54 9 -67 21 -62 9 3 12 0 9 -8
-3 -8 -2 -19 3 -26 4 -8 9 5 13 31 4 28 1 50 -8 64 -7 11 -13 47 -13 80 0 68
-14 119 -25 90z"/>
<path d="M2213 7025 c0 -33 2 -45 4 -27 2 18 2 45 0 60 -2 15 -4 0 -4 -33z"/>
<path d="M8023 6920 c0 -41 2 -58 4 -37 2 20 2 54 0 75 -2 20 -4 3 -4 -38z"/>
<path d="M2562 6895 c0 -16 2 -22 5 -12 2 9 2 23 0 30 -3 6 -5 -1 -5 -18z"/>
<path d="M2223 6820 c0 -30 2 -43 4 -27 2 15 2 39 0 55 -2 15 -4 2 -4 -28z"/>
<path d="M8013 6675 c0 -22 2 -30 4 -17 2 12 2 30 0 40 -3 9 -5 -1 -4 -23z"/>
<path d="M7602 6603 c-8 -15 -9 -24 -1 -28 15 -10 21 0 17 27 l-3 23 -13 -22z"/>
<path d="M2640 6396 c0 -8 5 -18 10 -21 6 -3 10 3 10 14 0 12 -4 21 -10 21 -5
0 -10 -6 -10 -14z"/>
<path d="M2667 4845 c-4 -8 -2 -17 3 -20 6 -4 10 3 10 14 0 25 -6 27 -13 6z"/>
<path d="M2670 4730 c0 -5 5 -10 10 -10 6 0 10 5 10 10 0 6 -4 10 -10 10 -5 0
-10 -4 -10 -10z"/>
<path d="M2262 4600 c0 -14 2 -19 5 -12 2 6 2 18 0 25 -3 6 -5 1 -5 -13z"/>
<path d="M7973 4530 c0 -25 2 -35 4 -22 2 12 2 32 0 45 -2 12 -4 2 -4 -23z"/>
<path d="M7543 4523 c-18 -7 -16 -43 2 -43 9 0 15 9 15 25 0 14 -1 25 -2 24
-2 0 -9 -3 -15 -6z"/>
<path d="M2272 4480 c0 -19 2 -27 5 -17 2 9 2 25 0 35 -3 9 -5 1 -5 -18z"/>
<path d="M7962 4440 c0 -19 2 -27 5 -17 2 9 2 25 0 35 -3 9 -5 1 -5 -18z"/>
<path d="M2690 4430 c0 -19 3 -21 12 -12 9 9 9 15 0 24 -9 9 -12 7 -12 -12z"/>
<path d="M7515 4410 c-8 -13 14 -42 26 -34 5 3 9 14 9 25 0 20 -24 26 -35 9z"/>
<path d="M2281 4394 c0 -11 3 -14 6 -6 3 7 2 16 -1 19 -3 4 -6 -2 -5 -13z"/>
<path d="M7952 4360 c0 -14 2 -19 5 -12 2 6 2 18 0 25 -3 6 -5 1 -5 -13z"/>
<path d="M2695 4328 c1 -23 8 -44 14 -46 7 -2 10 12 8 39 -2 23 -8 44 -14 46
-8 3 -10 -10 -8 -39z"/>
<path d="M7531 4314 c0 -11 3 -14 6 -6 3 7 2 16 -1 19 -3 4 -6 -2 -5 -13z"/>
<path d="M7941 4284 c0 -11 3 -14 6 -6 3 7 2 16 -1 19 -3 4 -6 -2 -5 -13z"/>
<path d="M2302 4245 c0 -16 2 -22 5 -12 2 9 2 23 0 30 -3 6 -5 -1 -5 -18z"/>
<path d="M7932 4230 c0 -14 2 -19 5 -12 2 6 2 18 0 25 -3 6 -5 1 -5 -13z"/>
<path d="M2720 4216 c0 -14 5 -26 10 -26 6 0 10 9 10 19 0 11 -4 23 -10 26 -6
4 -10 -5 -10 -19z"/>
<path d="M2311 4200 c-1 -25 46 -240 72 -325 102 -334 227 -599 420 -890 95
-143 236 -321 336 -425 64 -67 62 -63 -19 30 -216 249 -378 489 -515 765 -128
259 -201 471 -283 820 -6 22 -10 33 -11 25z"/>
<path d="M7922 4165 c0 -16 2 -22 5 -12 2 9 2 23 0 30 -3 6 -5 -1 -5 -18z"/>
<path d="M7881 4164 c0 -11 3 -14 6 -6 3 7 2 16 -1 19 -3 4 -6 -2 -5 -13z"/>
<path d="M7872 4110 c0 -14 2 -19 5 -12 2 6 2 18 0 25 -3 6 -5 1 -5 -13z"/>
<path d="M7886 4014 c-16 -65 -31 -128 -34 -139 -3 -11 -2 -18 1 -15 10 9 68
242 65 259 -2 8 -16 -39 -32 -105z"/>
<path d="M2741 4040 c0 -8 4 -24 9 -35 5 -13 9 -14 9 -5 0 8 -4 24 -9 35 -5
13 -9 14 -9 5z"/>
<path d="M7470 3989 c0 -5 5 -7 10 -4 6 3 10 8 10 11 0 2 -4 4 -10 4 -5 0 -10
-5 -10 -11z"/>
<path d="M2780 3905 c0 -5 5 -17 10 -25 5 -8 10 -10 10 -5 0 6 -5 17 -10 25
-5 8 -10 11 -10 5z"/>
<path d="M7815 3773 c-65 -181 -120 -315 -171 -417 -30 -60 -53 -111 -50 -113
7 -7 117 217 158 322 50 126 100 276 95 281 -2 3 -17 -31 -32 -73z"/>
<path d="M7365 3790 c-4 -12 -5 -24 -2 -27 3 -2 8 5 12 17 4 12 5 24 2 27 -3
2 -8 -5 -12 -17z"/>
<path d="M7330 3700 c0 -5 5 -10 10 -10 6 0 10 5 10 10 0 6 -4 10 -10 10 -5 0
-10 -4 -10 -10z"/>
<path d="M7264 3568 c-31 -62 -61 -119 -67 -126 -5 -7 -7 -15 -4 -18 7 -7 59
70 95 142 28 56 47 114 38 114 -3 0 -30 -51 -62 -112z"/>
<path d="M3032 3440 c13 -20 28 -27 28 -12 0 10 -22 32 -32 32 -5 0 -3 -9 4
-20z"/>
<path d="M3080 3360 c6 -11 15 -18 21 -14 6 4 6 11 -2 20 -17 21 -31 17 -19
-6z"/>
<path d="M3160 3251 c0 -6 4 -13 10 -16 6 -3 7 1 4 9 -7 18 -14 21 -14 7z"/>
<path d="M7550 3173 c-31 -55 -172 -268 -227 -343 l-25 -35 31 35 c59 65 275
400 258 400 -3 0 -20 -26 -37 -57z"/>
<path d="M3210 3182 c0 -12 19 -26 26 -19 2 2 -2 10 -11 17 -9 8 -15 8 -15 2z"/>
<path d="M3315 3040 c3 -5 8 -10 11 -10 2 0 4 5 4 10 0 6 -5 10 -11 10 -5 0
-7 -4 -4 -10z"/>
<path d="M7204 2683 c-49 -59 -154 -174 -233 -257 -126 -131 -130 -137 -32
-41 111 109 240 250 321 353 74 92 36 55 -56 -55z"/>
<path d="M3835 2500 c3 -5 8 -10 11 -10 2 0 4 5 4 10 0 6 -5 10 -11 10 -5 0
-7 -4 -4 -10z"/>
<path d="M3236 2458 c16 -26 50 -60 84 -85 24 -18 16 -7 -25 36 -59 60 -73 73
-59 49z"/>
<path d="M6333 2458 c-13 -6 -23 -18 -23 -27 1 -14 2 -14 13 -1 7 8 19 21 27
28 17 14 13 14 -17 0z"/>
<path d="M4017 2349 c7 -7 15 -10 18 -7 3 3 -2 9 -12 12 -14 6 -15 5 -6 -5z"/>
<path d="M3464 2238 c39 -37 74 -67 78 -68 4 0 -17 21 -45 48 -86 78 -109 92
-33 20z"/>
<path d="M6129 2263 c-13 -16 -12 -17 4 -4 16 13 21 21 13 21 -2 0 -10 -8 -17
-17z"/>
<path d="M6760 2225 c-24 -25 -42 -45 -39 -45 3 0 25 20 49 45 24 25 42 45 39
45 -3 0 -25 -20 -49 -45z"/>
<path d="M6050 2222 c-19 -9 -36 -24 -36 -33 -1 -15 2 -15 32 3 34 20 63 49
48 47 -5 0 -25 -8 -44 -17z"/>
<path d="M5945 2137 c-65 -47 -155 -118 -155 -123 0 -9 70 36 133 84 31 25 57
49 57 53 0 11 1 12 -35 -14z"/>
<path d="M3585 2130 c10 -11 20 -20 23 -20 3 0 -3 9 -13 20 -10 11 -20 20 -23
20 -3 0 3 -9 13 -20z"/>
<path d="M4320 2132 c0 -5 12 -18 27 -28 l28 -18 -16 24 c-17 26 -39 38 -39
22z"/>
<path d="M3690 2046 c0 -2 8 -10 18 -17 15 -13 16 -12 3 4 -13 16 -21 21 -21
13z"/>
<path d="M3740 2006 c0 -2 8 -10 18 -17 15 -13 16 -12 3 4 -13 16 -21 21 -21
13z"/>
<path d="M5595 1910 c-8 -13 5 -13 25 0 13 8 13 10 -2 10 -9 0 -20 -4 -23 -10z"/>
<path d="M5545 1884 c-39 -20 -46 -28 -15 -19 14 4 32 13 40 21 19 18 12 18
-25 -2z"/>
<path d="M6329 1873 c-13 -16 -12 -17 4 -4 16 13 21 21 13 21 -2 0 -10 -8 -17
-17z"/>
<path d="M3959 1837 c13 -17 161 -121 161 -114 0 3 -39 33 -87 67 -48 34 -81
55 -74 47z"/>
<path d="M6218 1795 c-131 -96 -433 -293 -603 -393 -206 -122 -270 -156 -360
-195 -54 -22 -76 -35 -55 -32 106 19 545 278 943 557 109 76 138 99 125 98 -2
0 -24 -16 -50 -35z"/>
<path d="M5276 1694 c-5 -14 -4 -15 9 -4 17 14 19 20 6 20 -5 0 -12 -7 -15
-16z"/>
<path d="M4164 1692 c21 -35 666 -432 791 -487 77 -34 92 -30 25 6 -41 22 -47
28 -25 24 16 -4 34 -7 40 -8 5 -1 13 -6 16 -11 9 -11 79 2 79 15 0 5 -19 9
-42 8 -97 -2 -135 7 -237 60 -122 62 -326 186 -559 340 -52 34 -91 58 -88 53z"/>
<path d="M5050 1650 c0 -5 5 -10 11 -10 5 0 7 5 4 10 -3 6 -8 10 -11 10 -2 0
-4 -4 -4 -10z"/>
<path d="M5219 1658 c0 -2 -2 -14 -5 -27 -2 -14 -9 -30 -15 -38 -8 -9 -8 -13
-1 -13 6 0 14 4 17 10 7 12 15 70 9 70 -2 0 -4 -1 -5 -2z"/>
<path d="M5060 1531 c0 -10 19 -25 25 -20 1 2 -3 10 -11 17 -8 7 -14 8 -14 3z"/>
<path d="M5594 1424 c-18 -14 -18 -15 4 -4 12 6 22 13 22 15 0 8 -5 6 -26 -11z"/>
<path d="M5062 1413 c-9 -9 -8 -16 3 -27 8 -8 15 -26 15 -40 0 -30 25 -57 45
-50 8 4 15 1 15 -6 0 -6 -9 -14 -20 -17 -11 -3 -20 -12 -20 -20 0 -8 5 -11 10
-8 6 4 17 1 25 -5 8 -6 19 -9 25 -5 5 3 10 2 10 -3 0 -13 42 -20 66 -12 15 6
9 12 -34 30 l-52 23 3 49 c2 26 12 56 21 66 9 10 16 23 16 29 0 15 -114 11
-128 -4z"/>
<path d="M5266 1241 c-4 -5 3 -7 14 -4 23 6 26 13 6 13 -8 0 -17 -4 -20 -9z"/>
</g>
</svg>
