<?xml version="1.0" standalone="no"?>
<!DOCTYPE svg PUBLIC "-//W3C//DTD SVG 20010904//EN"
 "http://www.w3.org/TR/2001/REC-SVG-20010904/DTD/svg10.dtd">
<svg version="1.0" xmlns="http://www.w3.org/2000/svg"
 width="1024.000000pt" height="1024.000000pt" viewBox="0 0 1024.000000 1024.000000"
 preserveAspectRatio="xMidYMid meet">

<g transform="translate(0.000000,1024.000000) scale(0.100000,-0.100000)"
fill="#000000" stroke="none">
<path d="M6090 6297 c-3 -3 -46 -7 -97 -10 -238 -14 -569 -195 -733 -401 -25
-31 -45 -60 -45 -64 0 -4 -19 -38 -41 -77 -132 -225 -187 -425 -187 -680 0
-306 79 -540 270 -805 10 -13 12 -21 6 -16 -29 17 -9 -10 55 -76 73 -78 219
-191 232 -183 5 3 46 -13 92 -36 120 -60 191 -85 309 -107 152 -29 240 -34
366 -22 174 16 286 49 463 136 85 42 173 90 195 107 54 41 115 99 115 109 0 5
32 50 70 101 173 226 260 493 261 793 0 244 -57 459 -178 663 -25 42 -47 84
-49 94 -12 63 -251 273 -385 339 -65 32 -252 93 -346 114 -67 14 -363 31 -373
21z m266 -38 c254 -35 488 -142 661 -302 64 -60 161 -192 149 -204 -3 -4 -14
4 -23 17 -46 66 -255 240 -360 299 -102 59 -317 127 -438 140 -150 16 -451 -8
-490 -39 -5 -5 -41 -20 -80 -35 -68 -25 -102 -45 -78 -45 7 0 14 4 18 10 3 5
11 7 18 4 13 -5 118 19 138 31 5 4 27 8 47 9 20 2 64 11 97 22 120 37 443 14
572 -41 155 -67 291 -152 353 -223 56 -64 69 -86 107 -182 14 -36 33 -73 41
-83 24 -27 40 -57 62 -112 4 -11 12 -31 18 -45 13 -30 23 -78 23 -105 0 -10 4
-24 9 -30 5 -6 8 -21 5 -33 -2 -12 0 -24 6 -27 5 -4 9 -21 9 -39 0 -18 5 -48
11 -65 9 -24 9 -39 0 -57 -6 -14 -7 -23 -1 -19 6 4 7 -12 4 -42 -5 -47 -8 -70
-19 -188 -11 -127 -36 -213 -87 -297 -24 -42 -31 -65 -32 -110 0 -32 -4 -58
-7 -58 -4 0 -7 -10 -7 -22 0 -55 -44 -123 -135 -211 -89 -86 -90 -87 -39 -57
69 42 226 211 279 302 85 144 149 354 161 524 18 266 -23 483 -129 696 -16 32
-29 64 -29 72 0 8 -6 17 -12 19 -8 3 -9 6 -2 6 26 2 109 -155 154 -287 92
-275 76 -616 -41 -899 -44 -104 -156 -270 -238 -353 -208 -207 -451 -322 -744
-352 -101 -10 -138 -10 -245 4 -141 18 -303 67 -412 124 -175 91 -359 267
-457 435 -60 103 -133 279 -133 320 0 11 -8 49 -17 83 -15 49 -18 100 -18 261
1 178 3 208 23 275 12 41 29 98 37 126 20 68 69 159 154 285 104 154 176 225
329 324 222 143 528 210 788 174z"/>
<path d="M5665 6082 c-6 -5 -26 -15 -45 -22 -19 -7 -43 -20 -52 -28 -10 -8
-18 -12 -18 -9 0 7 -11 -2 -73 -55 -43 -37 -29 -45 16 -9 20 15 68 48 107 71
39 23 73 46 76 51 7 11 1 12 -11 1z"/>
<path d="M5359 5867 c-85 -83 -151 -181 -162 -242 -2 -11 -9 -33 -16 -50 -130
-316 -136 -667 -18 -975 37 -97 73 -172 99 -203 20 -24 27 -27 49 -19 16 7 25
17 24 29 -2 30 -25 92 -50 136 -13 22 -22 44 -19 49 3 4 1 8 -4 8 -5 0 -12 8
-15 18 -3 9 -18 49 -32 87 -15 39 -28 90 -30 115 -1 25 -7 63 -13 85 -14 53
-23 289 -12 323 5 15 11 52 13 82 6 66 33 197 54 260 31 93 98 230 120 243 7
4 13 14 13 22 0 8 9 20 20 27 11 7 20 16 20 20 0 15 -17 8 -41 -15z"/>
<path d="M5297 4344 c3 -7 9 -14 14 -14 14 0 10 17 -5 23 -10 4 -13 1 -9 -9z"/>
<path d="M5415 4190 c51 -51 122 -106 129 -99 5 5 -160 149 -170 149 -5 0 14
-23 41 -50z"/>
<path d="M6799 4060 l-24 -21 33 16 c31 15 41 25 23 25 -5 0 -19 -9 -32 -20z"/>
<path d="M1950 5990 c-155 -14 -266 -66 -363 -170 -56 -59 -67 -76 -90 -151
-14 -46 -30 -111 -36 -143 -14 -79 -14 -839 0 -926 9 -55 25 -105 66 -199 4
-9 2 -12 -5 -7 -7 4 -3 -9 9 -28 31 -53 127 -137 194 -170 74 -36 145 -58 145
-46 0 6 5 10 11 10 5 0 7 -5 3 -12 -4 -6 -3 -8 3 -5 19 12 3211 9 3233 -3 42
-23 40 -7 -6 43 -27 28 -60 66 -72 82 -13 17 -21 24 -17 18 3 -7 2 -13 -4 -13
-13 0 -80 99 -120 177 -34 69 -74 183 -97 283 -54 224 -42 561 26 770 33 101
112 259 163 326 47 61 90 106 72 74 -4 -8 17 10 48 40 39 38 52 56 41 58 -8 2
-21 -2 -29 -8 -15 -13 -435 -15 -725 -4 -223 8 -2369 12 -2450 4z m3089 -49
c-13 -11 -27 -20 -31 -21 -5 0 -8 -6 -8 -14 0 -8 -3 -16 -7 -18 -5 -1 -21 -28
-37 -58 -16 -30 -49 -92 -73 -138 -91 -170 -131 -331 -140 -558 -12 -315 49
-573 189 -796 53 -86 55 -90 33 -81 -24 9 -102 124 -139 205 -85 186 -126 372
-126 570 0 305 56 527 190 753 23 40 16 49 -22 28 -30 -18 -98 -107 -98 -130
0 -6 -6 -14 -12 -16 -10 -4 -10 -7 -1 -14 9 -6 12 -48 3 -48 -1 0 -3 -7 -5
-15 -1 -8 -10 -42 -19 -75 -53 -187 -68 -314 -69 -565 -1 -200 2 -236 22 -324
23 -98 37 -132 94 -216 35 -53 97 -120 110 -120 16 0 137 -102 137 -115 0 -2
-701 -3 -1557 -2 -1480 2 -1561 3 -1613 21 -168 56 -301 183 -353 338 -20 60
-21 87 -24 506 -5 562 -2 577 141 745 85 101 160 141 296 157 41 5 761 12
1600 15 839 4 1527 9 1529 11 2 2 6 2 9 -1 3 -2 -6 -13 -19 -24z"/>
<path d="M1645 5760 c-10 -11 -15 -20 -11 -20 11 0 39 30 34 36 -3 2 -13 -5
-23 -16z"/>
<path d="M1555 5608 c-35 -97 -35 -94 -35 -537 0 -395 2 -442 19 -501 18 -63
61 -157 61 -133 0 17 27 6 70 -26 43 -33 60 -44 60 -37 0 2 -6 11 -13 18 -19
19 -92 120 -106 146 -25 48 -30 148 -31 603 -1 424 -6 519 -25 467z"/>
<path d="M1600 4415 c0 -13 46 -66 69 -82 20 -13 18 -7 -12 27 -20 24 -37 47
-37 52 0 4 -4 8 -10 8 -5 0 -10 -2 -10 -5z"/>
<path d="M7295 5939 c33 -35 63 -60 66 -55 12 15 89 -95 139 -198 104 -215
135 -364 135 -651 -1 -192 -2 -205 -34 -332 -24 -98 -48 -162 -91 -250 -68
-135 -142 -236 -167 -226 -13 5 -15 2 -10 -11 4 -9 3 -15 -1 -12 -5 3 -26 -13
-48 -36 l-39 -41 30 8 c17 5 269 11 560 15 575 7 555 5 679 67 127 64 218 180
257 329 17 66 21 114 23 299 2 121 0 328 -4 460 -6 260 0 226 -76 430 -28 73
-101 143 -206 195 -105 52 -78 50 -738 54 -261 1 -488 6 -505 11 -28 7 -26 4
30 -56z m34 22 c7 -5 12 -14 10 -20 -3 -8 -13 -5 -28 8 -24 21 -10 30 18 12z
m1044 -25 c91 -25 157 -64 228 -133 78 -75 112 -134 139 -239 18 -71 20 -111
20 -495 0 -271 -4 -437 -11 -471 -20 -95 -64 -174 -135 -249 -81 -83 -138
-121 -224 -147 -60 -18 -107 -20 -554 -27 l-488 -6 37 38 c21 21 49 56 64 78
14 22 34 49 43 59 26 29 88 161 95 201 3 19 9 35 13 35 9 0 27 62 36 125 3 28
8 59 11 70 17 86 24 213 20 340 -4 132 -10 169 -44 305 -22 85 -52 180 -66
209 -14 30 -24 58 -21 63 3 4 0 8 -6 8 -6 0 -9 4 -6 9 3 5 -1 12 -10 15 -9 4
-14 13 -10 22 3 8 2 13 -3 10 -5 -3 -13 6 -19 22 -9 25 -81 126 -116 162 -13
13 39 15 467 14 413 -1 490 -4 540 -18z"/>
<path d="M8238 5883 c7 -3 16 -2 19 1 4 3 -2 6 -13 5 -11 0 -14 -3 -6 -6z"/>
<path d="M8475 5810 c-4 -6 -1 -18 7 -27 20 -26 60 -72 92 -105 58 -63 57 -52
59 -652 l2 -551 -22 -35 c-12 -19 -29 -48 -38 -63 l-16 -28 28 7 c15 4 33 14
40 23 30 40 83 161 92 215 14 75 15 849 1 930 -11 71 -65 188 -109 238 -20 23
-44 38 -67 42 -19 4 -41 9 -49 12 -7 3 -16 0 -20 -6z"/>
<path d="M7557 5745 c9 -19 20 -35 25 -35 4 0 0 16 -9 35 -9 19 -20 35 -25 35
-4 0 0 -16 9 -35z"/>
<path d="M7667 4608 c-20 -62 -57 -149 -82 -192 -25 -44 -43 -81 -41 -83 13
-13 107 163 140 261 17 50 31 126 24 126 -3 0 -21 -51 -41 -112z"/>
</g>
</svg>
