<?xml version="1.0" standalone="no"?>
<!DOCTYPE svg PUBLIC "-//W3C//DTD SVG 20010904//EN"
 "http://www.w3.org/TR/2001/REC-SVG-20010904/DTD/svg10.dtd">
<svg version="1.0" xmlns="http://www.w3.org/2000/svg"
 width="1024.000000pt" height="1024.000000pt" viewBox="0 0 1024.000000 1024.000000"
 preserveAspectRatio="xMidYMid meet">

<g transform="translate(0.000000,1024.000000) scale(0.100000,-0.100000)"
fill="#000000" stroke="none">
<path d="M5104 8070 c-71 -15 -146 -60 -214 -129 -119 -120 -197 -258 -370
-661 -51 -118 -115 -260 -142 -315 -27 -55 -41 -91 -32 -80 9 11 56 103 105
205 50 101 93 187 98 190 14 8 51 88 51 108 0 10 4 22 10 28 5 5 37 63 71 129
124 242 221 375 287 390 30 7 82 48 82 65 0 5 5 10 10 10 6 0 10 9 10 20 0 25
35 35 115 34 60 -1 128 -24 170 -58 18 -15 17 -15 -17 -1 -55 22 -55 19 -4
-26 44 -39 77 -92 81 -130 1 -9 24 -43 50 -75 76 -94 222 -420 274 -614 11
-41 25 -91 31 -110 6 -19 24 -84 40 -145 79 -295 106 -349 187 -365 21 -4 50
-11 66 -15 20 -5 27 -4 27 8 0 8 -7 20 -15 27 -16 14 -37 57 -92 190 -39 96
-44 112 -48 158 -6 64 19 44 84 -70 57 -102 42 -62 -39 100 -43 86 -94 195
-113 242 -186 453 -286 641 -411 766 -104 104 -234 149 -352 124z m715 -813
c11 -26 18 -47 15 -47 -5 0 -44 86 -44 97 0 12 9 -4 29 -50z"/>
<path d="M4561 7004 c0 -11 3 -14 6 -6 3 7 2 16 -1 19 -3 4 -6 -2 -5 -13z"/>
<path d="M4532 6918 c-60 -162 -66 -172 -126 -232 -54 -54 -116 -151 -116
-182 0 -14 22 -24 53 -24 12 0 31 -7 41 -15 27 -20 29 -20 65 17 42 43 41 68
-1 68 -52 0 -64 12 -48 49 6 17 22 41 35 53 26 27 65 96 65 117 0 14 32 113
50 156 15 37 19 55 12 55 -4 0 -18 -28 -30 -62z"/>
<path d="M4316 6843 c-6 -14 -5 -15 5 -6 7 7 10 15 7 18 -3 3 -9 -2 -12 -12z"/>
<path d="M6080 6730 c6 -11 13 -20 16 -20 2 0 0 9 -6 20 -6 11 -13 20 -16 20
-2 0 0 -9 6 -20z"/>
<path d="M4199 6653 c-13 -16 -12 -17 4 -4 9 7 17 15 17 17 0 8 -8 3 -21 -13z"/>
<path d="M4169 6613 c-13 -16 -12 -17 4 -4 9 7 17 15 17 17 0 8 -8 3 -21 -13z"/>
<path d="M6210 6552 c45 -56 106 -111 159 -145 49 -30 36 -11 -16 25 -27 18
-79 64 -118 103 -61 62 -64 64 -25 17z"/>
<path d="M4134 6568 l-19 -23 23 19 c21 18 27 26 19 26 -2 0 -12 -10 -23 -22z"/>
<path d="M4074 6498 l-29 -33 33 29 c30 28 37 36 29 36 -2 0 -16 -15 -33 -32z"/>
<path d="M6025 6490 c7 -12 74 -25 83 -16 3 4 0 11 -8 16 -20 13 -83 13 -75 0z"/>
<path d="M6130 6470 c8 -5 22 -10 30 -10 13 0 13 1 0 10 -8 5 -22 10 -30 10
-13 0 -13 -1 0 -10z"/>
<path d="M3990 6429 c-22 -18 -22 -19 -3 -10 12 6 25 16 28 21 9 15 3 12 -25
-11z"/>
<path d="M3956 6348 c-19 -11 -51 -76 -41 -86 3 -3 18 7 34 22 45 43 50 88 7
64z"/>
<path d="M6440 6261 c-13 -9 -13 -12 0 -24 22 -21 77 -37 124 -37 l41 0 -35
22 c-19 12 -38 26 -41 30 -9 14 -73 20 -89 9z"/>
<path d="M3445 6239 c-27 -5 -171 -22 -320 -39 -396 -45 -568 -81 -723 -151
-70 -31 -150 -93 -184 -142 -13 -20 1 -10 37 26 63 62 141 112 190 121 20 4 9
-4 -30 -23 -62 -30 -115 -72 -115 -91 0 -14 69 15 100 44 32 29 123 68 221 95
91 25 212 44 467 71 107 11 199 23 205 27 7 5 39 10 72 13 40 3 59 9 58 17 -2
7 9 15 25 19 30 6 73 23 57 22 -5 0 -32 -4 -60 -9z"/>
<path d="M6838 6243 c7 -3 16 -2 19 1 4 3 -2 6 -13 5 -11 0 -14 -3 -6 -6z"/>
<path d="M6888 6233 c6 -2 18 -2 25 0 6 3 1 5 -13 5 -14 0 -19 -2 -12 -5z"/>
<path d="M6958 6220 c18 -4 36 -11 40 -15 4 -5 -3 -5 -15 -2 -13 3 -23 2 -23
-2 0 -10 130 -28 295 -42 252 -20 423 -48 525 -86 52 -19 103 -43 113 -52 18
-15 18 -16 -5 -22 -16 -5 -17 -7 -5 -8 9 -1 17 -6 17 -12 0 -5 4 -8 9 -5 15
10 125 -83 139 -117 8 -18 20 -39 27 -47 17 -21 28 -87 15 -92 -6 -2 -13 -25
-16 -51 -4 -40 -3 -46 10 -41 9 3 14 10 11 14 -3 4 2 21 10 36 8 16 15 22 15
14 1 -11 4 -10 16 5 15 19 16 15 11 -47 -2 -37 -12 -76 -21 -89 -9 -13 -16
-31 -16 -40 0 -32 -83 -143 -188 -251 -152 -157 -530 -446 -587 -450 -16 -1
-34 -5 -40 -8 -5 -4 -25 -10 -43 -13 -33 -7 -33 -6 -27 23 4 17 4 30 1 30 -2
0 -33 -12 -68 -27 -89 -39 -119 -80 -84 -116 11 -11 26 -12 66 -6 28 4 57 6
64 3 7 -3 29 9 50 25 44 35 80 33 47 -3 -12 -12 -21 -29 -21 -37 0 -8 -6 -21
-12 -28 -11 -11 -9 -11 11 -1 23 12 23 11 -4 -26 -16 -22 27 15 96 82 68 66
160 151 204 189 225 195 335 299 406 383 263 315 249 605 -37 754 -133 69
-311 112 -604 143 -80 8 -199 22 -265 30 -129 16 -170 18 -117 5z"/>
<path d="M3623 6155 c-10 -11 -10 -17 3 -29 8 -9 12 -20 9 -26 -3 -5 -1 -10 5
-10 6 0 8 -4 5 -10 -3 -5 -38 -10 -78 -10 -88 0 -79 -16 13 -23 36 -3 80 -10
98 -15 17 -6 32 -9 32 -7 0 2 16 -3 35 -11 87 -36 197 -2 203 63 2 23 -2 34
-15 41 -32 16 -136 33 -210 35 -40 1 -73 5 -73 10 0 11 -14 8 -27 -8z"/>
<path d="M6343 6104 c-29 -14 -53 -30 -53 -36 0 -25 52 -78 85 -87 34 -9 75
-5 75 8 0 29 -39 141 -49 140 -3 0 -30 -12 -58 -25z"/>
<path d="M6590 6101 c0 -5 6 -13 13 -19 19 -16 131 -36 153 -28 17 7 15 10
-16 25 -39 20 -150 36 -150 22z"/>
<path d="M2156 5769 c-24 -120 25 -271 135 -419 76 -103 480 -490 462 -444 -6
17 -5 17 10 5 9 -7 15 -17 12 -21 -2 -4 8 -18 23 -31 l27 -24 -24 28 c-39 44
-16 31 65 -35 126 -105 172 -129 110 -59 l-21 23 25 -7 c14 -4 32 -14 41 -21
8 -8 19 -14 24 -14 5 0 17 -8 28 -17 18 -17 19 -17 33 2 35 47 -4 106 -104
161 -37 20 -97 56 -134 80 -37 24 -71 44 -75 44 -5 0 -19 10 -33 23 -14 12
-38 31 -54 42 -16 11 -43 30 -60 41 -17 12 -34 20 -38 17 -5 -2 -8 1 -8 6 0 6
-7 11 -15 11 -8 0 -30 15 -49 33 -18 17 -58 55 -87 83 -102 96 -201 209 -225
256 -27 53 -28 57 -15 77 8 12 13 11 31 -10 18 -20 20 -21 14 -4 -4 11 -6 37
-5 58 1 26 -3 39 -14 43 -9 4 -15 14 -14 23 4 42 -1 60 -16 55 -8 -3 -17 -14
-20 -25 -10 -29 -22 -14 -17 21 6 40 -4 39 -12 -1z m81 -111 c-3 -8 -6 -5 -6
6 -1 11 2 17 5 13 3 -3 4 -12 1 -19z m673 -818 c0 -15 -5 -12 -26 11 -19 22
-19 22 4 10 12 -6 22 -16 22 -21z"/>
<path d="M6860 4876 c-47 -33 -67 -58 -79 -102 -12 -44 3 -77 39 -87 17 -4 31
4 61 36 22 23 42 52 45 65 9 32 -5 112 -19 112 -7 0 -28 -11 -47 -24z"/>
<path d="M3473 4877 c-17 -28 14 -196 43 -228 12 -14 32 -17 66 -10 3 0 20 13
37 27 60 50 32 137 -59 190 -46 27 -78 35 -87 21z"/>
<path d="M2880 4787 c0 -2 15 -16 33 -33 l32 -29 -29 33 c-28 30 -36 37 -36
29z"/>
<path d="M3280 4721 c0 -9 33 -41 44 -41 4 0 2 8 -3 19 -11 20 -41 36 -41 22z"/>
<path d="M3302 4580 c-12 -5 -28 -7 -36 -4 -14 6 -40 -28 -30 -39 5 -4 11 -27
13 -49 1 -3 13 -21 27 -38 26 -30 29 -31 83 -25 91 11 121 23 121 50 0 81 -96
138 -178 105z"/>
<path d="M3080 4576 c0 -2 8 -10 18 -17 15 -13 16 -12 3 4 -13 16 -21 21 -21
13z"/>
<path d="M7219 4563 c-13 -16 -12 -17 4 -4 16 13 21 21 13 21 -2 0 -10 -8 -17
-17z"/>
<path d="M7030 4448 c0 -7 -3 -24 -7 -38 -6 -22 -5 -24 10 -11 18 15 23 61 7
61 -5 0 -10 -6 -10 -12z"/>
<path d="M7135 4439 c-4 -6 -5 -12 -2 -15 2 -3 7 2 10 11 7 17 1 20 -8 4z"/>
<path d="M7115 4399 c-4 -6 -5 -12 -2 -15 2 -3 7 2 10 11 7 17 1 20 -8 4z"/>
<path d="M3240 4325 c0 -5 5 -17 10 -25 5 -8 10 -10 10 -5 0 6 -5 17 -10 25
-5 8 -10 11 -10 5z"/>
<path d="M3317 4169 c2 -24 11 -61 19 -82 25 -65 24 -152 -3 -287 -28 -144
-80 -351 -99 -396 -38 -88 -92 -414 -100 -604 -10 -226 37 -391 138 -486 68
-63 124 -86 228 -91 102 -6 178 10 323 67 116 46 312 151 312 168 0 7 64 54
143 106 130 86 175 123 182 151 5 23 43 65 78 86 51 31 92 75 92 99 0 11 -4
20 -9 20 -22 0 -63 -22 -84 -44 -30 -32 -158 -128 -164 -122 -3 2 14 23 36 46
40 42 57 76 24 49 -52 -43 -142 -143 -136 -152 3 -6 1 -7 -5 -3 -7 4 -23 -4
-37 -18 -37 -37 -156 -131 -184 -146 -17 -9 -20 -14 -11 -20 9 -6 8 -11 -7
-19 -11 -5 -24 -7 -28 -3 -5 4 -5 2 -1 -5 4 -7 -5 -19 -21 -30 -15 -10 -30
-21 -33 -25 -6 -7 -199 -104 -240 -120 -60 -23 -234 -56 -250 -48 -9 5 -41 11
-72 14 -65 6 -99 20 -116 47 -11 17 -9 19 13 19 29 0 30 3 11 38 -7 15 -20 41
-27 57 -7 17 -20 38 -29 49 -14 17 -15 16 -20 -20 l-5 -39 -26 26 c-37 36 -62
149 -56 260 2 46 8 93 15 105 6 11 18 60 27 110 9 49 21 104 27 122 5 18 11
39 12 47 3 23 28 47 36 35 4 -6 17 22 29 62 12 40 35 107 50 148 16 41 32 86
36 100 4 14 18 50 31 81 13 31 30 89 39 128 9 39 21 69 26 65 5 -3 8 -2 7 3
-1 4 5 22 14 38 14 28 25 75 33 142 4 38 -11 72 -41 95 -13 11 -33 37 -44 58
-24 48 -69 102 -80 95 -4 -3 -15 10 -24 28 -8 17 -16 28 -16 22 0 -5 -4 -3 -9
4 -6 10 -8 -1 -4 -30z m149 -395 c-9 -86 -64 -227 -94 -243 -10 -5 -24 -6 -31
-1 -26 15 33 240 76 291 21 24 28 27 40 17 11 -9 13 -25 9 -64z m879 -1054
c-10 -11 -23 -20 -28 -20 -6 0 -2 9 8 20 10 11 23 20 28 20 6 0 2 -9 -8 -20z
m-65 -54 c0 -2 -7 -9 -15 -16 -12 -10 -15 -10 -15 4 0 9 7 16 15 16 8 0 15 -2
15 -4z"/>
<path d="M6726 4044 c-16 -15 -22 -78 -10 -108 11 -29 35 -16 56 30 16 37 18
51 9 70 -12 28 -33 31 -55 8z"/>
<path d="M7012 3870 c0 -19 2 -27 5 -17 2 9 2 25 0 35 -3 9 -5 1 -5 -18z"/>
<path d="M6937 3823 c-2 -5 -7 -21 -11 -37 -5 -22 -11 -27 -27 -23 -29 8 -42
-33 -36 -113 3 -47 22 -113 67 -234 92 -251 91 -248 86 -146 -5 95 -12 148
-26 200 -20 73 -5 142 18 82 19 -47 40 -134 52 -212 6 -41 16 -88 20 -105 19
-61 70 -363 76 -445 10 -132 -29 -352 -67 -375 -5 -4 -4 6 1 21 16 40 6 39
-22 -3 -23 -35 -42 -58 -120 -144 -25 -27 -78 -41 -78 -21 0 13 -122 14 -140
2 -10 -6 -11 -10 -2 -10 6 0 12 -4 12 -8 0 -12 -113 4 -173 24 -50 17 -95 40
-192 98 -33 19 -78 45 -100 56 -22 11 -49 25 -59 32 -70 46 -113 68 -131 68
-11 0 -44 16 -73 35 -50 34 -264 145 -279 145 -7 0 62 -43 332 -208 315 -192
505 -271 675 -279 80 -4 105 -2 159 17 84 28 141 68 180 126 62 94 91 210 91
367 0 130 -15 247 -75 597 -30 174 -59 356 -64 405 -7 72 -9 79 -10 37 -1 -59
-21 -64 -21 -6 0 24 -5 34 -15 34 -9 0 -18 7 -21 15 -7 16 -20 20 -27 8z"/>
<path d="M5128 3523 c-10 -2 -21 -16 -24 -29 -16 -62 94 -106 117 -47 8 22 6
30 -13 49 -25 24 -54 34 -80 27z"/>
<path d="M5075 3170 c-8 -14 3 -30 21 -30 8 0 14 9 14 20 0 21 -24 28 -35 10z"/>
<path d="M4550 3138 c-16 -9 -25 -22 -25 -38 0 -23 4 -25 45 -24 51 1 86 7 96
17 4 4 15 7 24 7 21 0 45 26 32 34 -23 14 -148 17 -172 4z"/>
<path d="M5490 3053 c-22 -9 -49 -46 -50 -66 0 -10 8 -21 17 -24 16 -6 53 -39
53 -47 0 -3 -7 -6 -16 -8 -10 -2 20 -21 66 -42 63 -29 87 -36 99 -28 23 14 17
51 -18 111 -17 29 -29 56 -26 60 2 5 -2 16 -9 26 -13 18 -87 30 -116 18z"/>
<path d="M7051 3014 c0 -11 3 -14 6 -6 3 7 2 16 -1 19 -3 4 -6 -2 -5 -13z"/>
<path d="M5108 2893 c29 -2 74 -2 100 0 26 2 2 3 -53 3 -55 0 -76 -1 -47 -3z"/>
<path d="M7095 2700 c-3 -5 -1 -10 4 -10 6 0 11 5 11 10 0 6 -2 10 -4 10 -3 0
-8 -4 -11 -10z"/>
</g>
</svg>
