<?xml version="1.0" standalone="no"?>
<!DOCTYPE svg PUBLIC "-//W3C//DTD SVG 20010904//EN"
 "http://www.w3.org/TR/2001/REC-SVG-20010904/DTD/svg10.dtd">
<svg version="1.0" xmlns="http://www.w3.org/2000/svg"
 width="1024.000000pt" height="1024.000000pt" viewBox="0 0 1024.000000 1024.000000"
 preserveAspectRatio="xMidYMid meet">

<g transform="translate(0.000000,1024.000000) scale(0.100000,-0.100000)"
fill="#000000" stroke="none">
<path d="M4516 8904 c-118 -30 -237 -135 -270 -238 -10 -33 -26 -115 -36 -184
-9 -68 -22 -127 -27 -131 -5 -3 -21 -31 -35 -62 -15 -34 -40 -67 -62 -84 l-36
-27 -692 3 -693 2 -70 -22 c-151 -49 -267 -136 -317 -236 -50 -100 -61 -173
-63 -394 0 -151 -4 -206 -13 -209 -7 -2 -12 -13 -12 -24 0 -18 4 -19 38 -12
20 5 132 9 247 9 329 0 1570 17 1574 21 3 2 -380 5 -850 5 -470 1 -870 2 -889
4 -63 4 -62 3 -50 24 14 27 13 34 -5 27 -13 -5 -15 16 -15 147 0 236 26 322
134 448 61 72 150 130 236 156 59 17 183 20 1015 22 427 1 515 6 515 28 0 7 7
16 15 19 8 4 12 10 9 15 -3 5 0 9 6 9 6 0 9 4 6 8 -3 5 6 38 19 75 14 37 34
117 45 177 18 105 47 178 99 255 30 44 121 100 210 129 l79 26 524 -3 523 -2
85 -45 c96 -51 176 -125 207 -192 12 -24 31 -98 43 -164 13 -73 32 -143 50
-181 29 -62 28 -75 -1 -50 -39 32 -59 94 -85 262 -8 54 -24 118 -36 141 -22
45 -71 88 -91 81 -7 -3 -24 7 -39 21 -16 14 -28 20 -28 13 0 -7 -5 -9 -12 -5
-7 4 -3 -4 10 -17 84 -89 97 -115 121 -236 25 -126 34 -149 76 -188 19 -17 35
-35 35 -38 0 -4 14 -22 31 -40 17 -17 35 -41 39 -53 16 -41 73 -44 775 -44
473 1 676 -2 715 -11 66 -14 155 -52 166 -71 13 -20 99 -88 112 -88 17 0 88
-87 111 -136 12 -24 26 -68 33 -97 15 -69 17 -349 2 -354 -8 -3 -13 48 -16
164 -7 189 -23 255 -85 350 -36 54 -67 77 -145 107 -75 28 -83 18 -30 -40 72
-78 92 -103 104 -130 6 -13 18 -24 26 -24 9 0 13 -3 10 -6 -4 -3 0 -22 9 -41
10 -26 12 -53 7 -100 -5 -50 -3 -67 7 -74 8 -5 9 -9 4 -9 -6 0 -10 -12 -9 -27
1 -16 3 -52 3 -81 1 -49 3 -52 24 -48 26 4 66 -23 59 -42 -2 -6 5 -12 15 -13
10 0 13 -3 5 -6 -6 -2 -10 -8 -8 -12 22 -36 -57 -41 -608 -41 -66 0 -117 -2
-114 -5 6 -6 261 -15 563 -20 110 -1 211 -6 224 -10 22 -8 23 -6 17 21 -5 16
-12 110 -16 209 -10 201 -36 341 -78 414 -72 128 -208 217 -363 236 -29 4 -61
8 -71 10 -24 5 -161 5 -813 -2 l-500 -5 -40 29 c-22 16 -49 47 -60 69 -11 21
-26 44 -33 49 -7 6 -19 44 -26 85 -24 129 -39 214 -41 242 -7 68 -102 176
-200 226 l-70 35 -160 4 c-383 10 -1026 8 -1069 -3z m-376 -704 c0 -5 -7 -10
-16 -10 -8 0 -12 5 -9 10 3 6 10 10 16 10 5 0 9 -4 9 -10z m2957 -36 c-3 -3
-12 -4 -19 -1 -8 3 -5 6 6 6 11 1 17 -2 13 -5z"/>
<path d="M5710 8790 c20 -13 33 -13 25 0 -3 6 -14 10 -23 10 -15 0 -15 -2 -2
-10z"/>
<path d="M4317 8632 c-11 -12 -23 -54 -32 -113 -8 -52 -19 -112 -24 -134 -5
-22 -7 -42 -4 -45 9 -10 62 66 73 105 6 22 10 78 8 124 -3 81 -4 83 -21 63z"/>
<path d="M4608 8604 c-73 -38 -92 -83 -112 -275 -9 -86 -9 -106 1 -102 18 7
16 -12 -2 -27 -11 -9 -13 -16 -6 -23 15 -15 38 8 46 45 5 19 3 33 -4 37 -8 5
-9 36 -3 109 11 119 34 164 109 213 34 21 41 29 27 30 -15 1 -14 3 6 9 20 7
21 8 5 9 -11 0 -41 -11 -67 -25z"/>
<path d="M5582 8613 c-8 -3 6 -17 33 -35 80 -53 95 -82 107 -203 9 -82 8 -111
-1 -129 -10 -19 -10 -27 0 -45 8 -11 19 -21 26 -21 17 0 16 10 -2 34 -22 29
-18 42 6 20 22 -19 22 -19 12 1 -5 11 -10 49 -12 85 -4 127 -43 243 -84 254
-10 2 -16 9 -13 15 12 19 -40 37 -72 24z"/>
<path d="M6027 8153 c-13 -12 -7 -23 11 -22 10 0 12 3 4 6 -6 2 -10 9 -6 14 6
10 0 12 -9 2z"/>
<path d="M3378 8073 c7 -3 16 -2 19 1 4 3 -2 6 -13 5 -11 0 -14 -3 -6 -6z"/>
<path d="M3478 8073 c6 -2 18 -2 25 0 6 3 1 5 -13 5 -14 0 -19 -2 -12 -5z"/>
<path d="M2438 7985 c-20 -13 -39 -29 -43 -35 -12 -20 11 -9 54 25 50 40 44
46 -11 10z"/>
<path d="M2312 7787 c-19 -24 -32 -120 -32 -247 0 -73 4 -130 9 -130 5 0 19
12 30 26 19 25 21 40 21 190 0 156 -6 189 -28 161z"/>
<path d="M4098 7313 c23 -2 61 -2 85 0 23 2 4 4 -43 4 -47 0 -66 -2 -42 -4z"/>
<path d="M4248 7313 c12 -2 30 -2 40 0 9 3 -1 5 -23 4 -22 0 -30 -2 -17 -4z"/>
<path d="M4363 7313 c31 -2 83 -2 115 0 31 2 5 3 -58 3 -63 0 -89 -1 -57 -3z"/>
<path d="M4578 7313 c6 -2 18 -2 25 0 6 3 1 5 -13 5 -14 0 -19 -2 -12 -5z"/>
<path d="M4738 7313 c6 -2 18 -2 25 0 6 3 1 5 -13 5 -14 0 -19 -2 -12 -5z"/>
<path d="M4798 7313 c12 -2 30 -2 40 0 9 3 -1 5 -23 4 -22 0 -30 -2 -17 -4z"/>
<path d="M4978 7313 c7 -3 16 -2 19 1 4 3 -2 6 -13 5 -11 0 -14 -3 -6 -6z"/>
<path d="M5028 7313 c12 -2 30 -2 40 0 9 3 -1 5 -23 4 -22 0 -30 -2 -17 -4z"/>
<path d="M5348 7313 c7 -3 16 -2 19 1 4 3 -2 6 -13 5 -11 0 -14 -3 -6 -6z"/>
<path d="M5478 7313 c6 -2 18 -2 25 0 6 3 1 5 -13 5 -14 0 -19 -2 -12 -5z"/>
<path d="M5538 7313 c6 -2 18 -2 25 0 6 3 1 5 -13 5 -14 0 -19 -2 -12 -5z"/>
<path d="M5937 7313 c18 -2 50 -2 70 0 21 2 7 4 -32 4 -38 0 -55 -2 -38 -4z"/>
<path d="M6173 7313 c71 -2 183 -2 250 0 67 1 10 3 -128 3 -137 0 -192 -2
-122 -3z"/>
<path d="M6743 7313 c82 -2 212 -2 290 0 78 1 12 3 -148 3 -159 0 -223 -2
-142 -3z"/>
<path d="M7218 7313 c7 -3 16 -2 19 1 4 3 -2 6 -13 5 -11 0 -14 -3 -6 -6z"/>
<path d="M2575 7149 c4 -6 25 -24 48 -40 41 -30 58 -64 93 -184 29 -101 38
-193 89 -945 9 -118 19 -260 25 -315 5 -55 12 -152 15 -215 6 -116 19 -306 54
-795 11 -148 23 -315 26 -370 11 -201 45 -695 60 -875 8 -102 19 -268 25 -370
6 -102 15 -237 20 -300 5 -63 16 -227 25 -365 26 -420 34 -471 110 -630 28
-61 57 -104 88 -134 25 -24 44 -48 41 -53 -3 -4 2 -8 11 -8 9 0 14 -4 11 -9
-6 -9 57 -64 114 -98 33 -21 76 -36 165 -61 22 -7 58 -17 80 -24 31 -10 353
-13 1425 -16 1525 -3 1447 -6 1623 58 103 38 185 92 268 177 114 116 168 213
208 368 23 93 27 130 41 405 6 113 24 405 40 650 16 245 34 535 40 645 6 110
22 369 36 575 13 206 33 544 44 750 11 206 24 436 30 510 5 74 17 252 25 395
35 597 56 904 66 965 18 117 48 198 86 231 10 9 33 33 51 53 l34 36 -46 0
c-34 0 -44 -3 -40 -14 4 -11 -14 -14 -93 -15 -109 -2 -142 -11 -42 -11 90 0
100 -10 55 -50 -20 -18 -36 -39 -36 -46 0 -6 -7 -15 -16 -18 -8 -3 -12 -10 -9
-16 3 -5 -1 -10 -9 -10 -9 0 -18 0 -21 0 -10 -1 -56 -53 -71 -81 -8 -17 -17
-53 -19 -82 -11 -165 -16 -293 -20 -557 -3 -162 -8 -320 -10 -350 -3 -30 -7
-84 -10 -120 -2 -36 -9 -66 -15 -68 -5 -2 -7 -8 -4 -13 3 -6 1 -15 -4 -22 -9
-12 -20 -216 -27 -537 -5 -204 -15 -457 -21 -530 -2 -30 -4 -90 -5 -132 -1
-43 -4 -78 -8 -78 -3 0 -5 -37 -4 -82 1 -55 -4 -92 -13 -110 -9 -17 -10 -28
-4 -28 5 0 10 -5 10 -11 0 -5 -4 -8 -8 -5 -4 2 -9 -21 -10 -52 -1 -31 -4 -115
-6 -187 -2 -71 -7 -188 -10 -260 -4 -71 -8 -186 -11 -255 -4 -116 -15 -312
-18 -335 -1 -5 -5 -12 -9 -15 -4 -3 -8 -35 -9 -70 -1 -36 -5 -74 -10 -86 -9
-24 -17 -177 -24 -434 -10 -345 -19 -470 -35 -470 -7 0 -20 -60 -42 -200 -6
-41 -20 -90 -30 -109 -20 -36 -19 -51 2 -26 7 8 20 15 29 15 12 0 30 25 53 73
82 167 89 214 118 742 6 105 17 294 25 420 28 420 55 877 70 1145 8 146 19
333 25 415 17 258 41 670 55 935 3 58 8 137 10 175 3 39 14 219 25 400 11 182
22 357 25 390 2 33 9 137 15 230 13 200 34 330 61 375 11 18 22 30 25 27 3 -3
-4 -38 -15 -79 -26 -92 -36 -193 -56 -533 -9 -148 -18 -295 -21 -325 -2 -30
-9 -131 -14 -225 -49 -852 -73 -1257 -95 -1590 -13 -214 -33 -545 -45 -735
-21 -354 -46 -755 -55 -870 -3 -36 -12 -190 -20 -343 -9 -162 -22 -307 -31
-348 -17 -76 -103 -254 -135 -281 -11 -10 -18 -22 -14 -28 4 -6 3 -10 -2 -8
-4 1 -46 -35 -92 -80 -67 -65 -103 -91 -175 -126 -181 -87 -47 -80 -1576 -84
-1000 -2 -1375 0 -1430 9 -94 14 -166 41 -253 93 -150 90 -228 170 -305 314
-74 139 -84 201 -122 767 -6 88 -22 320 -36 515 -14 195 -27 389 -30 430 -3
41 -14 206 -24 365 -11 160 -24 362 -30 450 -6 88 -14 203 -20 255 -5 52 -11
142 -15 200 -8 148 -44 702 -50 780 -3 36 -8 89 -10 118 -3 28 -7 76 -10 105
-2 28 -7 104 -10 167 -3 63 -12 187 -20 275 -8 88 -17 212 -20 275 -8 151 -41
412 -60 474 -8 28 -12 58 -9 69 4 13 2 17 -5 13 -6 -4 -9 -2 -6 6 3 8 -6 25
-20 38 -28 26 -32 38 -12 37 54 -2 179 4 175 8 -3 3 -49 8 -102 10 -85 3 -96
2 -96 -13 -1 -13 -6 -11 -23 11 -21 25 -76 40 -62 16z"/>
<path d="M3268 7123 c12 -2 32 -2 45 0 12 2 2 4 -23 4 -25 0 -35 -2 -22 -4z"/>
<path d="M3378 7123 c23 -2 61 -2 85 0 23 2 4 4 -43 4 -47 0 -66 -2 -42 -4z"/>
<path d="M6858 7123 c6 -2 18 -2 25 0 6 3 1 5 -13 5 -14 0 -19 -2 -12 -5z"/>
<path d="M6938 7123 c7 -3 16 -2 19 1 4 3 -2 6 -13 5 -11 0 -14 -3 -6 -6z"/>
<path d="M7013 7123 c9 -2 23 -2 30 0 6 3 -1 5 -18 5 -16 0 -22 -2 -12 -5z"/>
<path d="M2770 6978 c0 -7 9 -40 20 -73 21 -61 25 -88 35 -235 3 -47 12 -148
20 -225 8 -77 17 -192 20 -255 8 -157 42 -637 60 -850 8 -96 17 -242 20 -325
3 -82 10 -193 15 -245 5 -52 12 -131 15 -175 16 -258 26 -394 30 -422 3 -18 9
-128 15 -245 5 -117 12 -235 15 -263 6 -58 50 -696 70 -1030 31 -495 37 -561
61 -668 13 -59 36 -131 49 -160 46 -95 71 -131 60 -84 l-7 28 37 -15 c20 -9
35 -12 33 -8 -27 56 -72 144 -89 172 -30 48 -57 183 -69 348 -5 75 -12 162
-14 193 -3 31 -14 209 -25 395 -12 187 -30 449 -41 584 -10 135 -26 380 -35
545 -14 282 -33 545 -41 590 -2 11 -6 74 -9 140 -4 66 -12 215 -20 330 -8 116
-17 271 -20 345 -3 74 -12 194 -20 265 -8 72 -17 191 -20 265 -4 74 -8 146
-10 160 -4 28 -21 288 -30 460 -10 190 -15 232 -41 298 -14 34 -22 67 -19 72
3 5 -6 21 -20 36 -13 14 -22 31 -18 37 4 6 1 7 -7 2 -10 -6 -12 -4 -7 8 3 10
2 17 -3 17 -6 0 -10 -6 -10 -12z"/>
<path d="M3290 1667 c0 -2 14 -16 32 -33 l32 -29 -25 32 c-20 27 -39 41 -39
30z"/>
<path d="M6935 1630 c-3 -5 -1 -10 4 -10 6 0 11 5 11 10 0 6 -2 10 -4 10 -3 0
-8 -4 -11 -10z"/>
</g>
</svg>
