<?xml version="1.0" standalone="no"?>
<!DOCTYPE svg PUBLIC "-//W3C//DTD SVG 20010904//EN"
 "http://www.w3.org/TR/2001/REC-SVG-20010904/DTD/svg10.dtd">
<svg version="1.0" xmlns="http://www.w3.org/2000/svg"
 width="1024.000000pt" height="1024.000000pt" viewBox="0 0 1024.000000 1024.000000"
 preserveAspectRatio="xMidYMid meet">

<g transform="translate(0.000000,1024.000000) scale(0.100000,-0.100000)"
fill="#000000" stroke="none">
<path d="M4906 7345 c-296 -56 -558 -216 -728 -445 -100 -134 -169 -284 -204
-445 -26 -118 -24 -358 4 -485 100 -460 433 -784 905 -881 115 -23 316 -28
428 -10 497 81 880 451 964 930 19 108 19 295 0 404 -67 382 -309 693 -661
847 -161 71 -263 92 -459 96 -122 2 -192 -1 -249 -11z m425 -21 c115 -22 230
-59 323 -105 114 -57 159 -92 68 -53 -20 9 -68 27 -107 41 -38 14 -75 29 -81
34 -9 8 -173 49 -194 49 -6 0 -10 -4 -10 -8 0 -5 24 -14 53 -21 175 -40 346
-139 493 -285 149 -148 234 -294 290 -501 24 -90 27 -117 28 -265 0 -175 -6
-220 -55 -379 -16 -51 -29 -105 -29 -120 0 -84 -158 -287 -215 -277 -20 4 -39
-6 -83 -43 -81 -67 -134 -102 -237 -154 -49 -26 -86 -47 -81 -47 5 0 56 16
114 36 57 19 106 34 108 31 9 -9 -189 -98 -281 -126 -129 -39 -215 -50 -345
-46 -205 7 -425 70 -579 166 -44 28 -18 26 81 -7 56 -19 104 -34 107 -34 4 0
-21 15 -54 34 -230 128 -429 339 -516 546 -74 176 -105 398 -80 582 12 90 7
142 -13 135 -23 -8 -38 -112 -39 -267 -1 -227 31 -372 122 -560 23 -46 39 -85
37 -87 -7 -7 -71 108 -103 187 -162 391 -84 878 187 1173 42 45 47 48 46 27
-2 -44 31 -35 102 28 37 33 102 82 144 110 77 50 263 134 326 147 18 4 31 9
28 12 -8 9 -156 -26 -231 -54 -38 -15 -101 -45 -140 -68 -108 -63 -137 -71
-61 -16 129 92 325 166 516 195 70 10 285 5 361 -10z m925 -899 c38 -164 20
-422 -41 -578 -26 -69 -33 -49 -10 28 51 167 59 413 20 630 -11 61 13 0 31
-80z m-1965 -992 c13 -16 12 -17 -3 -4 -10 7 -18 15 -18 17 0 8 8 3 21 -13z"/>
<path d="M4995 7300 c-35 -7 -32 -8 25 -7 36 0 76 4 90 8 34 10 -60 9 -115 -1z"/>
<path d="M4920 4879 c-291 -19 -589 -100 -830 -225 -311 -161 -569 -427 -720
-739 -122 -253 -202 -610 -187 -841 7 -118 33 -159 126 -196 l56 -23 1715 -3
c1182 -2 1737 1 1785 8 88 14 143 44 172 95 20 36 23 54 23 165 0 445 -171
892 -456 1198 -383 411 -979 609 -1684 561z m562 -35 c203 -28 501 -117 618
-185 38 -22 39 -22 -105 26 -180 60 -360 104 -373 90 -6 -6 -7 -5 143 -49 456
-132 838 -451 1030 -861 88 -188 121 -296 154 -505 30 -193 34 -270 16 -304
-8 -15 -15 -40 -15 -54 0 -15 -12 -38 -27 -54 -23 -24 -25 -31 -13 -38 11 -7
8 -12 -15 -22 -24 -11 -361 -13 -1780 -13 -1576 0 -1753 2 -1778 16 -26 14
-27 17 -13 31 14 14 13 17 -4 33 -11 10 -20 26 -20 36 0 10 -7 24 -15 33 -18
18 -19 38 -3 54 7 7 8 12 2 12 -17 0 -54 -58 -54 -85 0 -35 -16 -31 -29 6 -34
98 13 438 93 677 37 109 129 303 193 404 52 83 139 188 206 251 62 57 178 148
158 124 -16 -20 -8 -47 13 -47 8 0 55 29 105 64 201 142 437 238 739 301 63
13 24 17 -55 5 -93 -13 -174 -32 -305 -71 -129 -37 -212 -73 -331 -142 -112
-65 -122 -60 -14 7 88 55 248 127 382 172 123 41 368 91 507 103 137 13 450 5
590 -15z m1415 -1011 c59 -133 110 -315 137 -489 27 -173 17 -419 -15 -362 -5
10 -9 30 -9 45 1 16 3 64 4 108 5 107 -18 305 -48 424 -22 84 -79 264 -101
314 -4 9 -4 17 -1 17 4 0 19 -26 33 -57z"/>
<path d="M3383 3863 c-48 -106 -111 -312 -134 -438 -7 -38 -13 -113 -13 -165
-1 -78 2 -95 14 -95 11 0 17 16 23 55 30 201 64 359 98 460 49 142 58 176 59
218 0 49 -14 39 -47 -35z"/>
</g>
</svg>
